<svg width="600" height="768" viewBox="0 0 600 768" fill="none" xmlns="http://www.w3.org/2000/svg">
<g clip-path="url(#clip0_311_6431)">
<rect width="600" height="768" fill="url(#paint0_linear_311_6431)"/>
<g opacity="0.2">
<path d="M689.185 516.092C677.226 515.872 666.473 513.825 656.527 509.788C634.646 500.908 621.65 484.976 609.17 469.485C597.045 454.834 585.952 441.064 567.533 433.357C549.233 425.93 531.283 427.913 512.495 430.25C492.749 432.662 472.327 435.031 450.445 426.151C428.564 417.271 415.568 401.339 403.089 385.848C390.963 371.197 379.87 357.427 361.451 349.72C343.151 342.293 325.201 344.276 306.413 346.613C286.668 349.025 266.245 351.394 244.363 342.514C222.482 333.633 209.486 317.702 197.007 302.211C184.882 287.559 173.789 273.79 155.37 266.083C137.069 258.656 119.12 260.638 100.331 262.976C80.5858 265.388 60.1628 267.757 38.2816 258.876C16.4003 249.996 3.40456 234.064 -9.07513 218.574C-21.2002 203.922 -32.2933 190.153 -50.7122 182.446C-69.0129 175.018 -86.9622 177.001 -105.751 179.338C-125.378 182.03 -145.801 184.399 -167.682 175.519C-177.628 171.482 -186.767 165.457 -195.496 157.28L-185.717 146.885C-178.138 153.899 -170.827 158.72 -162.354 162.39C-144.053 169.817 -126.104 167.835 -107.315 165.497C-87.57 163.085 -67.147 160.716 -45.2657 169.597C-23.3845 178.477 -10.3888 194.409 2.09092 209.899C14.216 224.551 25.3091 238.32 43.728 246.027C62.0287 253.455 79.978 251.472 98.7664 249.135C118.512 246.722 138.935 244.353 160.816 253.234C182.697 262.114 195.693 278.046 208.173 293.537C220.298 308.188 231.391 321.958 249.81 329.665C268.11 337.092 286.06 335.109 304.848 332.772C324.594 330.36 345.017 327.991 366.898 336.871C388.779 345.751 401.775 361.683 414.255 377.174C426.38 391.826 437.473 405.595 455.892 413.302C474.192 420.729 492.142 418.746 510.93 416.409C530.676 413.997 551.098 411.628 572.98 420.508C594.861 429.389 607.857 445.32 620.336 460.811C632.462 475.463 643.555 489.232 661.973 496.939C670.328 500.33 679.211 501.85 689.534 502.101L689.185 516.092Z" fill="#0A5C9F"/>
<path d="M705.227 552.489L702.754 552.875C683.008 555.288 662.585 557.657 640.704 548.776C618.822 539.896 605.827 523.964 593.347 508.473C581.222 493.822 570.129 480.052 551.71 472.345C533.409 464.918 515.46 466.901 496.672 469.238C476.926 471.65 456.503 474.019 434.622 465.139C412.741 456.258 399.745 440.327 387.265 424.836C375.14 410.184 364.047 396.415 345.628 388.708C327.209 381.001 309.378 383.264 290.59 385.601C270.844 388.013 250.421 390.382 228.54 381.502C206.659 372.621 193.663 356.69 181.183 341.199C169.058 326.547 157.965 312.778 139.546 305.071C121.246 297.644 103.296 299.626 84.5079 301.964C64.7625 304.376 44.3395 306.745 22.4582 297.864C0.576946 288.984 -12.4188 273.052 -24.8984 257.562C-37.0236 242.91 -48.1166 229.14 -66.5355 221.434C-84.8362 214.006 -102.786 215.989 -121.574 218.326C-141.319 220.739 -161.742 223.108 -183.624 214.227C-205.505 205.347 -218.501 189.415 -230.98 173.924L-232.485 171.924L-221.437 162.97L-219.932 164.97C-207.807 179.622 -196.714 193.392 -178.295 201.098C-159.995 208.526 -142.045 206.543 -123.257 204.206C-103.512 201.793 -83.0886 199.424 -61.2073 208.305C-39.326 217.185 -26.3303 233.117 -13.8506 248.608C-1.72547 263.259 9.36755 277.029 27.7864 284.736C46.0872 292.163 64.0365 290.18 82.8248 287.843C102.57 285.431 122.993 283.062 144.875 291.942C166.756 300.822 179.752 316.754 192.231 332.245C204.356 346.897 215.449 360.666 233.868 368.373C252.169 375.8 270.118 373.817 288.907 371.48C308.652 369.068 329.075 366.699 350.956 375.579C372.838 384.46 385.833 400.391 398.313 415.882C410.438 430.534 421.531 444.303 439.95 452.01C458.369 459.717 476.2 457.455 494.989 455.117C514.734 452.705 535.157 450.336 557.038 459.217C578.92 468.097 591.915 484.029 604.395 499.519C616.52 514.171 627.613 527.94 646.032 535.647C664.333 543.075 682.282 541.092 701.07 538.755L703.544 538.368L705.227 552.489Z" fill="#0A5C9F"/>
<path d="M719.591 589.596C708.752 588.904 698.061 590.126 687.092 591.466C667.346 593.878 646.923 596.247 625.042 587.367C603.161 578.486 590.165 562.555 577.685 547.064C565.56 532.412 554.467 518.643 536.048 510.936C517.748 503.509 499.798 505.491 481.01 507.829C461.264 510.241 440.841 512.61 418.96 503.73C397.079 494.849 384.083 478.917 371.604 463.427C359.478 448.775 348.385 435.006 329.966 427.299C311.666 419.871 293.716 421.854 274.928 424.192C255.183 426.604 234.76 428.973 212.878 420.092C190.997 411.212 178.001 395.28 165.522 379.789C153.397 365.138 142.303 351.368 123.885 343.661C105.584 336.234 87.6345 338.217 68.8462 340.554C49.1008 342.966 28.6778 345.335 6.79649 336.455C-15.0848 327.575 -28.0805 311.643 -40.5602 296.152C-52.6853 281.501 -63.7784 267.731 -82.1973 260.024C-100.498 252.597 -118.447 254.58 -137.236 256.917C-156.981 259.329 -177.404 261.698 -199.285 252.818C-221.167 243.937 -234.162 228.006 -246.642 212.515C-253.693 203.629 -260.508 195.303 -268.647 188.525L-259.383 177.688C-250.095 185.628 -242.646 194.675 -235.315 203.443C-223.189 218.094 -212.096 231.864 -193.677 239.571C-175.377 246.998 -157.427 245.015 -138.639 242.678C-118.894 240.266 -98.4707 237.897 -76.5894 246.777C-54.7081 255.658 -41.7124 271.589 -29.2327 287.08C-17.1076 301.732 -6.01452 315.501 12.4044 323.208C30.7051 330.635 48.6545 328.653 67.4428 326.315C87.1883 323.903 107.611 321.534 129.493 330.414C151.374 339.295 164.369 355.227 176.849 370.717C188.974 385.369 200.067 399.138 218.486 406.845C236.787 414.273 254.736 412.29 273.525 409.953C293.27 407.54 313.693 405.171 335.574 414.052C357.456 422.932 370.451 438.864 382.931 454.355C395.056 469.006 406.149 482.776 424.568 490.483C442.869 497.91 460.818 495.927 479.607 493.59C499.352 491.178 519.775 488.809 541.656 497.689C563.537 506.569 576.533 522.501 589.013 537.992C601.138 552.643 612.231 566.413 630.65 574.12C648.951 581.547 666.9 579.564 685.688 577.227C697.056 576.048 708.983 574.633 720.898 575.53L719.591 589.596Z" fill="#0A5C9F"/>
<path d="M737.919 639.202C734.264 636.791 730.447 634.779 726.468 633.164C708.168 625.737 690.218 627.72 671.43 630.057C651.684 632.469 631.261 634.838 609.38 625.958C587.499 617.078 574.503 601.146 562.024 585.655C549.898 571.004 538.805 557.234 520.386 549.527C502.086 542.1 484.136 544.083 465.348 546.42C445.603 548.832 425.18 551.201 403.298 542.321C381.417 533.44 368.421 517.509 355.942 502.018C343.817 487.366 332.723 473.597 314.305 465.89C296.004 458.463 278.054 460.445 259.266 462.783C239.521 465.195 219.098 467.564 197.216 458.684C175.335 449.803 162.339 433.871 149.86 418.381C137.735 403.729 126.642 389.96 108.223 382.253C89.922 374.825 71.9727 376.808 53.1843 379.146C33.4389 381.558 13.0159 383.927 -8.86537 375.046C-30.7466 366.166 -43.7424 350.234 -56.2221 334.744C-68.3472 320.092 -79.4402 306.322 -97.8591 298.615C-116.16 291.188 -134.109 293.171 -152.898 295.508C-172.643 297.921 -193.066 300.289 -214.947 291.409C-236.829 282.529 -249.824 266.597 -262.304 251.106C-274.429 236.455 -285.522 222.685 -303.941 214.978C-307.919 213.364 -312.059 212.147 -316.361 211.328L-313.301 197.51C-308.204 198.652 -303.269 200.192 -298.495 202.129C-276.613 211.01 -263.618 226.941 -251.138 242.432C-239.013 257.084 -227.92 270.853 -209.501 278.56C-191.2 285.987 -173.251 284.004 -154.462 281.667C-134.717 279.255 -114.294 276.886 -92.4127 285.766C-70.5314 294.647 -57.5357 310.579 -45.056 326.069C-32.9309 340.721 -21.8378 354.49 -3.41893 362.197C14.8818 369.624 32.8311 367.642 51.6194 365.304C71.3649 362.892 91.7879 360.523 113.669 369.404C135.55 378.284 148.546 394.216 161.026 409.706C173.151 424.358 184.244 438.128 202.663 445.834C220.964 453.262 238.913 451.279 257.701 448.942C277.447 446.529 297.87 444.16 319.751 453.041C341.632 461.921 354.628 477.853 367.108 493.344C379.233 507.995 390.326 521.765 408.745 529.472C427.045 536.899 444.995 534.916 463.783 532.579C483.529 530.167 503.952 527.798 525.833 536.678C547.714 545.558 560.71 561.49 573.19 576.981C585.315 591.633 596.408 605.402 614.827 613.109C633.127 620.536 651.077 618.553 669.865 616.216C689.61 613.804 710.033 611.435 731.915 620.315C736.689 622.253 741.302 624.588 745.753 627.321L737.919 639.202Z" fill="#0A5C9F"/>
<path d="M760.645 717.93C757.872 714.488 755.217 711.325 752.444 707.883C740.319 693.231 729.225 679.462 710.807 671.755C692.506 664.328 674.557 666.31 655.768 668.648C636.023 671.06 615.6 673.429 593.718 664.549C571.837 655.668 558.841 639.736 546.362 624.246C534.237 609.594 523.144 595.825 504.725 588.118C486.424 580.69 468.475 582.673 449.686 585.011C429.941 587.423 409.518 589.792 387.637 580.911C365.755 572.031 352.76 556.099 340.28 540.608C328.155 525.957 317.062 512.187 298.643 504.481C280.342 497.053 262.393 499.036 243.604 501.373C223.859 503.786 203.436 506.154 181.555 497.274C159.673 488.394 146.678 472.462 134.198 456.971C122.073 442.32 110.98 428.55 92.561 420.843C74.2603 413.416 56.3109 415.399 37.5226 417.736C17.7772 420.148 -2.64583 422.517 -24.5271 413.637C-46.4084 404.756 -59.4041 388.825 -71.8838 373.334C-84.0089 358.682 -95.102 344.913 -113.521 337.206C-131.822 329.779 -149.771 331.761 -168.559 334.099C-188.305 336.511 -208.728 338.88 -230.609 330C-252.49 321.119 -265.486 305.187 -277.966 289.697C-290.091 275.045 -301.184 261.276 -319.603 253.569C-337.903 246.142 -355.853 248.124 -374.641 250.462C-378.749 250.879 -383.137 251.415 -387.525 251.952L-388.649 237.594C-384.422 237.456 -380.314 237.038 -376.045 236.223C-356.299 233.81 -335.876 231.441 -313.995 240.322C-292.114 249.202 -279.118 265.134 -266.638 280.625C-254.513 295.276 -243.42 309.046 -225.001 316.753C-206.7 324.18 -188.751 322.197 -169.963 319.86C-150.217 317.448 -129.794 315.079 -107.913 323.959C-86.0317 332.839 -73.0359 348.771 -60.5563 364.262C-48.4312 378.913 -37.3381 392.683 -18.9192 400.39C-0.618484 407.817 17.3309 405.834 36.1192 403.497C55.8647 401.085 76.2876 398.716 98.1689 407.596C120.05 416.477 133.046 432.408 145.526 447.899C157.651 462.551 168.744 476.32 187.163 484.027C205.463 491.454 223.413 489.472 242.201 487.134C261.946 484.722 282.369 482.353 304.251 491.234C326.132 500.114 339.128 516.046 351.607 531.536C363.733 546.188 374.826 559.957 393.245 567.664C411.545 575.092 429.495 573.109 448.283 570.772C468.028 568.359 488.451 565.99 510.333 574.871C532.214 583.751 545.21 599.683 557.689 615.174C569.814 629.825 580.907 643.595 599.326 651.302C617.627 658.729 635.576 656.746 654.365 654.409C674.11 651.997 694.533 649.628 716.414 658.508C738.296 667.388 751.291 683.32 763.771 698.811C766.426 701.974 769.2 705.416 771.855 708.579L760.645 717.93Z" fill="#0A5C9F"/>
<path d="M725.527 733.102C718.669 725.453 709.187 716.276 695.263 710.625C676.962 703.197 659.013 705.18 640.225 707.518C620.479 709.93 600.056 712.299 578.175 703.418C556.294 694.538 543.298 678.606 530.818 663.115C518.693 648.464 507.6 634.694 489.181 626.987C470.88 619.56 452.931 621.543 434.143 623.88C414.397 626.292 393.974 628.661 372.093 619.781C350.212 610.901 337.216 594.969 324.736 579.478C312.611 564.827 301.518 551.057 283.099 543.35C264.799 535.923 246.849 537.906 228.061 540.243C208.315 542.655 187.892 545.024 166.011 536.144C144.13 527.263 131.134 511.332 118.654 495.841C106.529 481.189 95.4363 467.42 77.0174 459.713C58.7167 452.286 40.7673 454.268 21.979 456.606C2.23353 459.018 -18.1894 461.387 -40.0707 452.507C-61.952 443.626 -74.9477 427.694 -87.4274 412.204C-99.5525 397.552 -110.646 383.783 -129.064 376.076C-147.365 368.649 -165.315 370.631 -184.103 372.969C-203.848 375.381 -224.271 377.75 -246.153 368.869C-268.034 359.989 -281.03 344.057 -293.509 328.567C-305.634 313.915 -316.727 300.145 -335.146 292.439C-349.071 286.787 -362.546 286.879 -372.515 287.467L-373.521 273.389C-361.917 272.77 -346.409 272.808 -329.818 279.31C-307.937 288.19 -294.941 304.122 -282.461 319.613C-270.336 334.264 -259.243 348.034 -240.824 355.741C-222.524 363.168 -204.574 361.185 -185.786 358.848C-166.04 356.436 -145.617 354.067 -123.736 362.947C-101.855 371.827 -88.8592 387.759 -76.3795 403.25C-64.2544 417.901 -53.1614 431.671 -34.7425 439.378C-16.4418 446.805 1.50761 444.822 20.2959 442.485C40.0414 440.073 60.4644 437.704 82.3456 446.584C104.227 455.465 117.223 471.396 129.702 486.887C141.827 501.539 152.92 515.308 171.339 523.015C189.64 530.442 207.589 528.46 226.378 526.122C246.123 523.71 266.546 521.341 288.427 530.221C310.309 539.102 323.305 555.034 335.784 570.524C347.909 585.176 359.002 598.945 377.421 606.652C395.722 614.079 413.671 612.097 432.46 609.759C452.205 607.347 472.628 604.978 494.509 613.859C516.391 622.739 529.386 638.671 541.866 654.161C553.991 668.813 565.084 682.583 583.503 690.29C601.804 697.717 619.753 695.734 638.542 693.397C658.287 690.984 678.71 688.616 700.591 697.496C717.301 704.277 728.449 715.057 736.059 723.706L725.527 733.102Z" fill="#0A5C9F"/>
<path d="M685.805 752.197C683.698 751.11 681.59 750.023 679.322 749.334C661.021 741.907 643.072 743.89 624.283 746.227C604.538 748.639 584.115 751.008 562.233 742.128C540.352 733.247 527.356 717.316 514.877 701.825C502.752 687.173 491.659 673.404 473.24 665.697C454.939 658.27 436.99 660.252 418.201 662.59C398.456 665.002 378.033 667.371 356.152 658.49C334.27 649.61 321.275 633.678 308.795 618.188C296.67 603.536 285.577 589.767 267.158 582.06C248.857 574.632 230.908 576.615 212.119 578.952C192.374 581.365 171.951 583.734 150.07 574.853C128.188 565.973 115.193 550.041 102.713 534.55C90.5879 519.899 79.4949 506.129 61.076 498.422C42.7753 490.995 24.8259 492.978 6.03759 495.315C-13.7079 497.727 -34.1308 500.096 -56.0121 491.216C-77.8934 482.336 -90.8891 466.404 -103.369 450.913C-115.494 436.261 -126.587 422.492 -145.006 414.785C-163.307 407.358 -181.256 409.341 -200.044 411.678C-219.79 414.09 -240.213 416.459 -262.094 407.579C-283.975 398.698 -296.971 382.767 -309.451 367.276C-321.576 352.624 -332.669 338.855 -351.088 331.148C-353.077 330.341 -355.464 329.372 -357.733 328.683L-353.598 315.07C-350.931 315.92 -348.265 316.771 -345.48 317.901C-323.599 326.781 -310.603 342.713 -298.123 358.204C-285.998 372.855 -274.905 386.625 -256.486 394.332C-238.185 401.759 -220.236 399.776 -201.448 397.439C-181.702 395.027 -161.279 392.658 -139.398 401.538C-117.517 410.419 -104.521 426.35 -92.0413 441.841C-79.9162 456.493 -68.8231 470.262 -50.4042 477.969C-32.1035 485.396 -14.1542 483.414 4.63418 481.076C24.3797 478.664 44.8026 476.295 66.6839 485.175C88.5652 494.056 101.561 509.988 114.041 525.478C126.166 540.13 137.259 553.899 155.678 561.606C173.978 569.034 191.928 567.051 210.716 564.713C230.461 562.301 250.884 559.932 272.766 568.813C294.647 577.693 307.643 593.625 320.122 609.115C332.248 623.767 343.341 637.537 361.759 645.243C380.06 652.671 398.01 650.688 416.798 648.351C436.543 645.938 456.966 643.57 478.848 652.45C500.729 661.33 513.725 677.262 526.204 692.753C538.329 707.404 549.422 721.174 567.841 728.881C586.142 736.308 604.091 734.325 622.88 731.988C642.625 729.576 663.048 727.207 684.929 736.087C687.714 737.217 690.22 738.466 692.725 739.714L685.805 752.197Z" fill="#0A5C9F"/>
<path d="M617.279 783.466C614.407 783.69 611.654 784.195 608.783 784.419C589.037 786.832 568.614 789.201 546.733 780.32C524.852 771.44 511.856 755.508 499.376 740.017C487.251 725.366 476.158 711.596 457.739 703.889C439.439 696.462 421.489 698.445 402.701 700.782C382.955 703.194 362.532 705.563 340.651 696.683C318.77 687.803 305.774 671.871 293.294 656.38C281.169 641.728 270.076 627.959 251.657 620.252C233.357 612.825 215.407 614.808 196.619 617.145C176.874 619.557 156.451 621.926 134.569 613.046C112.688 604.165 99.6923 588.234 87.2127 572.743C75.0875 558.091 63.9945 544.322 45.5756 536.615C27.2749 529.188 9.3255 531.17 -9.46283 533.508C-29.2083 535.92 -49.6313 538.289 -71.5125 529.408C-93.3938 520.528 -106.39 504.596 -118.869 489.106C-130.994 474.454 -142.087 460.685 -160.506 452.978C-178.807 445.55 -196.756 447.533 -215.545 449.87C-235.29 452.283 -255.713 454.652 -277.594 445.771C-299.476 436.891 -312.471 420.959 -324.951 405.468C-326.854 403.306 -328.477 401.026 -330.379 398.863L-319.45 389.63C-317.547 391.792 -315.526 394.234 -313.903 396.514C-301.778 411.166 -290.685 424.936 -272.266 432.642C-253.965 440.07 -236.016 438.087 -217.228 435.75C-197.482 433.337 -177.059 430.968 -155.178 439.849C-133.297 448.729 -120.301 464.661 -107.821 480.152C-95.6962 494.803 -84.6032 508.573 -66.1843 516.28C-47.8836 523.707 -29.9342 521.724 -11.1459 519.387C8.59959 516.975 29.0225 514.606 50.9038 523.486C72.7851 532.367 85.7808 548.298 98.2605 563.789C110.386 578.441 121.479 592.21 139.898 599.917C158.198 607.344 176.148 605.361 194.936 603.024C214.681 600.612 235.104 598.243 256.986 607.123C278.867 616.004 291.863 631.936 304.342 647.426C316.467 662.078 327.561 675.847 345.979 683.554C364.28 690.981 382.23 688.999 401.018 686.661C420.763 684.249 441.186 681.88 463.068 690.761C484.949 699.641 497.945 715.573 510.424 731.063C522.549 745.715 533.642 759.484 552.061 767.191C570.362 774.619 588.311 772.636 607.1 770.299C609.971 770.074 613.004 769.451 615.875 769.227L617.279 783.466Z" fill="#0A5C9F"/>
<path d="M529.878 818.426C508.674 809.589 496.076 793.819 483.715 778.608C471.589 763.956 460.496 750.187 442.077 742.48C423.777 735.053 405.827 737.035 387.039 739.373C367.294 741.785 346.871 744.154 324.989 735.273C303.108 726.393 290.112 710.461 277.633 694.971C265.508 680.319 254.415 666.549 235.996 658.843C217.695 651.415 199.746 653.398 180.957 655.735C161.212 658.148 140.789 660.517 118.908 651.636C97.0263 642.756 84.0305 626.824 71.5509 611.333C59.4258 596.682 48.3327 582.912 29.9138 575.205C11.6131 567.778 -6.33625 569.761 -25.1246 572.098C-44.87 574.51 -65.293 576.879 -87.1743 567.999C-109.056 559.118 -122.051 543.187 -134.531 527.696C-146.656 513.044 -157.749 499.275 -176.168 491.568C-194.469 484.141 -212.418 486.124 -231.206 488.461C-250.672 490.755 -270.816 493.006 -292.063 484.846L-286.853 471.438C-268.67 478.585 -251.398 476.559 -232.889 474.34C-213.144 471.928 -192.721 469.559 -170.84 478.439C-148.959 487.32 -135.963 503.251 -123.483 518.742C-111.358 533.394 -100.265 547.163 -81.846 554.87C-63.5453 562.297 -45.596 560.315 -26.8077 557.977C-7.06218 555.565 13.3608 553.196 35.2421 562.077C57.1233 570.957 70.119 586.889 82.5987 602.379C94.7239 617.031 105.817 630.8 124.236 638.507C142.536 645.935 160.486 643.952 179.274 641.615C199.02 639.202 219.443 636.833 241.324 645.714C263.205 654.594 276.201 670.526 288.681 686.017C300.806 700.668 311.899 714.438 330.318 722.145C348.618 729.572 366.568 727.589 385.356 725.252C405.101 722.84 425.524 720.471 447.406 729.351C469.287 738.231 482.283 754.163 494.762 769.654C506.49 784.144 517.744 797.516 535.486 805.179L529.878 818.426Z" fill="#0A5C9F"/>
<path d="M483.747 835.615C477.996 829.806 473.083 823.642 468.171 817.478C456.046 802.826 444.953 789.057 426.534 781.35C408.233 773.922 390.284 775.905 371.495 778.242C351.75 780.655 331.327 783.024 309.446 774.143C287.564 765.263 274.569 749.331 262.089 733.84C249.964 719.189 238.871 705.419 220.452 697.712C202.151 690.285 184.202 692.268 165.414 694.605C145.668 697.017 125.245 699.386 103.364 690.506C81.4826 681.626 68.4869 665.694 56.0072 650.203C43.8821 635.552 32.789 621.782 14.3702 614.075C-3.93055 606.648 -21.8799 608.631 -40.6682 610.968C-60.4137 613.38 -80.8367 615.749 -102.718 606.869C-124.599 597.988 -137.595 582.057 -150.075 566.566C-162.2 551.914 -173.293 538.145 -191.712 530.438C-210.012 523.011 -227.962 524.993 -246.75 527.331C-254.569 528.328 -262.506 529.045 -270.561 529.483L-271.007 515.169C-263.511 514.968 -256.252 514.207 -248.433 513.21C-228.688 510.798 -208.265 508.429 -186.383 517.309C-164.502 526.19 -151.506 542.121 -139.027 557.612C-126.902 572.264 -115.809 586.033 -97.3897 593.74C-79.089 601.167 -61.1396 599.185 -42.3513 596.847C-22.6058 594.435 -2.18286 592.066 19.6984 600.946C41.5797 609.827 54.5754 625.759 67.0551 641.249C79.1802 655.901 90.2733 669.67 108.692 677.377C127.111 685.084 144.942 682.822 163.731 680.484C183.476 678.072 203.899 675.703 225.78 684.584C247.662 693.464 260.657 709.396 273.137 724.886C285.262 739.538 296.355 753.308 314.774 761.014C333.075 768.442 351.024 766.459 369.812 764.122C389.558 761.709 409.981 759.341 431.862 768.221C453.743 777.101 466.739 793.033 479.219 808.524C484.131 814.688 488.807 820.292 494.042 825.661L483.747 835.615Z" fill="#0A5C9F"/>
<path d="M447.435 850.303C437.847 838.534 427.022 826.959 410.592 820.059C392.292 812.632 374.342 814.615 355.554 816.952C335.809 819.364 315.386 821.733 293.504 812.853C271.623 803.973 258.627 788.041 246.148 772.55C234.023 757.898 222.929 744.129 204.511 736.422C186.21 728.995 168.26 730.978 149.472 733.315C129.727 735.727 109.304 738.096 87.4225 729.216C65.5412 720.335 52.5455 704.404 40.0658 688.913C27.9407 674.261 16.8476 660.492 -1.57127 652.785C-19.872 645.358 -37.8213 647.34 -56.6096 649.678C-76.3551 652.09 -96.7781 654.459 -118.659 645.578C-140.541 636.698 -153.536 620.766 -166.016 605.276C-178.141 590.624 -189.234 576.855 -207.653 569.148C-223.965 562.528 -240.075 563.403 -255.153 565.161L-256.556 550.922C-240.521 549.09 -221.819 548.107 -202.325 556.019C-180.444 564.899 -167.448 580.831 -154.968 596.322C-142.843 610.973 -131.75 624.743 -113.331 632.45C-95.0304 639.877 -77.081 637.894 -58.2927 635.557C-38.5473 633.145 -18.1243 630.776 3.75698 639.656C25.6383 648.537 38.634 664.468 51.1137 679.959C63.2388 694.611 74.3318 708.38 92.7507 716.087C111.051 723.514 129.001 721.531 147.789 719.194C167.535 716.782 187.958 714.413 209.839 723.293C231.72 732.174 244.716 748.105 257.195 763.596C269.321 778.248 280.414 792.017 298.833 799.724C317.133 807.151 335.083 805.169 353.871 802.831C373.616 800.419 394.039 798.05 415.921 806.931C435.415 814.842 448.143 828.58 458.365 841.069L447.435 850.303Z" fill="#0A5C9F"/>
<path d="M410.553 867.538C405.629 863.686 400.5 860.91 394.931 858.649C376.63 851.222 358.681 853.205 339.892 855.542C320.147 857.954 299.724 860.323 277.843 851.443C255.961 842.563 242.966 826.631 230.486 811.14C218.361 796.489 207.268 782.719 188.849 775.012C170.548 767.585 152.599 769.568 133.81 771.905C114.065 774.317 93.642 776.686 71.7607 767.806C49.8794 758.925 36.8837 742.994 24.4041 727.503C12.2789 712.851 1.18589 699.082 -17.233 691.375C-35.5337 683.948 -53.4831 685.93 -72.2714 688.268C-92.0169 690.68 -112.44 693.049 -134.321 684.169C-156.202 675.288 -169.198 659.356 -181.678 643.866C-193.803 629.214 -204.896 615.445 -223.315 607.738C-228.885 605.477 -234.498 603.894 -240.713 603.225L-238.729 589.203C-231.438 590.076 -224.75 591.864 -217.987 594.609C-196.105 603.489 -183.11 619.421 -170.63 634.912C-158.505 649.563 -147.412 663.333 -128.993 671.04C-110.692 678.467 -92.7428 676.484 -73.9545 674.147C-54.209 671.735 -33.7861 669.366 -11.9048 678.246C9.97651 687.127 22.9722 703.058 35.4519 718.549C47.577 733.201 58.6701 746.97 77.089 754.677C95.5079 762.384 113.339 760.122 132.127 757.784C151.873 755.372 172.296 753.003 194.177 761.883C216.058 770.764 229.054 786.696 241.534 802.186C253.659 816.838 264.752 830.607 283.171 838.314C301.472 845.741 319.421 843.759 338.209 841.421C357.955 839.009 378.378 836.64 400.259 845.521C407.022 848.266 413.065 851.645 418.903 856.099L410.553 867.538Z" fill="#0A5C9F"/>
<path d="M358.483 892.511C347.245 891.658 336.157 892.718 324.23 894.133C304.485 896.545 284.062 898.914 262.181 890.034C240.299 881.153 227.304 865.222 214.824 849.731C202.699 835.079 191.606 821.31 173.187 813.603C154.886 806.176 136.937 808.158 118.149 810.496C98.4031 812.908 77.9801 815.277 56.0989 806.397C34.2176 797.516 21.2219 781.584 8.74219 766.094C-3.38293 751.442 -14.476 737.673 -32.8949 729.966C-51.3138 722.259 -69.145 724.521 -87.9333 726.859C-107.679 729.271 -128.102 731.64 -149.983 722.759C-171.864 713.879 -184.86 697.947 -197.34 682.457C-204.789 673.41 -211.84 664.524 -220.774 657.423L-211.909 646.425C-201.943 654.408 -194.139 664.294 -186.571 673.621C-174.446 688.272 -163.353 702.042 -144.934 709.749C-126.634 717.176 -108.684 715.193 -89.896 712.856C-70.1505 710.444 -49.7276 708.075 -27.8463 716.955C-5.96503 725.836 7.0307 741.767 19.5104 757.258C31.6355 771.91 42.7286 785.679 61.1474 793.386C79.4482 800.813 97.3975 798.831 116.186 796.493C135.931 794.081 156.354 791.712 178.236 800.592C200.117 809.473 213.113 825.405 225.592 840.895C237.717 855.547 248.81 869.316 267.229 877.023C285.53 884.45 303.479 882.468 322.268 880.13C334.195 878.715 346.519 877.462 359.392 878.284L358.483 892.511Z" fill="#0A5C9F"/>
<path d="M261.487 932.845C256.39 931.704 251.454 930.164 246.68 928.226C224.799 919.346 211.803 903.414 199.324 887.924C187.199 873.272 176.106 859.502 157.687 851.796C139.386 844.368 121.437 846.351 102.648 848.688C82.9027 851.101 62.4798 853.47 40.5985 844.589C18.7172 835.709 5.72153 819.777 -6.75816 804.286C-18.8833 789.635 -29.9763 775.865 -48.3952 768.158C-66.6959 760.731 -84.6453 762.714 -103.434 765.051C-123.179 767.463 -143.602 769.832 -165.483 760.952C-170.257 759.014 -174.87 756.679 -179.321 753.946L-171.488 742.065C-167.832 744.476 -164.015 746.488 -160.037 748.103C-141.736 755.53 -123.787 753.547 -104.998 751.21C-85.253 748.798 -64.8301 746.429 -42.9488 755.309C-21.0675 764.19 -8.0718 780.121 4.40789 795.612C16.533 810.264 27.6261 824.033 46.045 831.74C64.3457 839.167 82.295 837.185 101.083 834.847C120.829 832.435 141.252 830.066 163.133 838.946C185.014 847.827 198.01 863.759 210.49 879.249C222.615 893.901 233.708 907.67 252.127 915.377C256.105 916.992 260.245 918.209 264.546 919.028L261.487 932.845Z" fill="#0A5C9F"/>
<circle cx="219.359" cy="768.804" r="256.588" transform="rotate(-22.9105 219.359 768.804)" fill="url(#paint1_radial_311_6431)"/>
<circle cx="353.112" cy="331.656" r="322.993" transform="rotate(-22.9105 353.112 331.656)" fill="url(#paint2_radial_311_6431)"/>
</g>
</g>
<defs>
<linearGradient id="paint0_linear_311_6431" x1="8.00001" y1="788" x2="610" y2="14" gradientUnits="userSpaceOnUse">
<stop stop-color="#226399"/>
<stop offset="1" stop-color="#288BDD"/>
</linearGradient>
<radialGradient id="paint1_radial_311_6431" cx="0" cy="0" r="1" gradientUnits="userSpaceOnUse" gradientTransform="translate(219.359 768.804) rotate(90) scale(256.588)">
<stop stop-color="#3DF3FF"/>
<stop offset="1" stop-color="#3DF3FF" stop-opacity="0"/>
</radialGradient>
<radialGradient id="paint2_radial_311_6431" cx="0" cy="0" r="1" gradientUnits="userSpaceOnUse" gradientTransform="translate(353.112 331.656) rotate(90) scale(322.993)">
<stop stop-color="#3DF3FF"/>
<stop offset="1" stop-color="#3DF3FF" stop-opacity="0"/>
</radialGradient>
<clipPath id="clip0_311_6431">
<rect width="600" height="768" fill="white"/>
</clipPath>
</defs>
</svg>
