<svg width="600" height="768" viewBox="0 0 600 768" fill="none" xmlns="http://www.w3.org/2000/svg">
<g clip-path="url(#clip0_1065_2951)">
<rect width="600" height="768" fill="#47B4F1"/>
<g opacity="0.15">
<rect x="-17.5" y="-45.5" width="139" height="139" stroke="white"/>
<rect x="121.5" y="-45.5" width="139" height="139" stroke="white"/>
<rect x="260.5" y="-45.5" width="139" height="139" stroke="white"/>
<rect x="399.5" y="-45.5" width="139" height="139" stroke="white"/>
<rect x="538.5" y="-45.5" width="139" height="139" stroke="white"/>
<rect x="-17.5" y="93.5" width="139" height="139" stroke="white"/>
<rect x="121.5" y="93.5" width="139" height="139" stroke="white"/>
<rect x="260.5" y="93.5" width="139" height="139" stroke="white"/>
<rect x="399.5" y="93.5" width="139" height="139" stroke="white"/>
<rect x="538.5" y="93.5" width="139" height="139" stroke="white"/>
<rect x="-17.5" y="232.5" width="139" height="139" stroke="white"/>
<rect x="121.5" y="232.5" width="139" height="139" stroke="white"/>
<rect x="260.5" y="232.5" width="139" height="139" stroke="white"/>
<rect x="399.5" y="232.5" width="139" height="139" stroke="white"/>
<rect x="538.5" y="232.5" width="139" height="139" stroke="white"/>
<rect x="-17.5" y="371.5" width="139" height="139" stroke="white"/>
<rect x="121.5" y="371.5" width="139" height="139" stroke="white"/>
<rect x="260.5" y="371.5" width="139" height="139" stroke="white"/>
<rect x="399.5" y="371.5" width="139" height="139" stroke="white"/>
<rect x="538.5" y="371.5" width="139" height="139" stroke="white"/>
<rect x="-17.5" y="510.5" width="139" height="139" stroke="white"/>
<rect x="121.5" y="510.5" width="139" height="139" stroke="white"/>
<rect x="260.5" y="510.5" width="139" height="139" stroke="white"/>
<rect x="399.5" y="510.5" width="139" height="139" stroke="white"/>
<rect x="538.5" y="510.5" width="139" height="139" stroke="white"/>
<rect x="-17.5" y="649.5" width="139" height="139" stroke="white"/>
<rect x="121.5" y="649.5" width="139" height="139" stroke="white"/>
<rect x="260.5" y="649.5" width="139" height="139" stroke="white"/>
<rect x="399.5" y="649.5" width="139" height="139" stroke="white"/>
<rect x="538.5" y="649.5" width="139" height="139" stroke="white"/>
</g>
</g>
<defs>
<clipPath id="clip0_1065_2951">
<rect width="600" height="768" fill="white"/>
</clipPath>
</defs>
</svg>
