<svg width="20" height="21" viewBox="0 0 20 21" fill="none" xmlns="http://www.w3.org/2000/svg">
<path d="M10 5.58984C9.13088 5.59095 8.29767 5.9367 7.6831 6.55126C7.06853 7.16583 6.72278 7.99905 6.72168 8.86818H8.38835C8.38835 7.97901 9.11168 7.25651 10 7.25651C10.8883 7.25651 11.6117 7.97901 11.6117 8.86818C11.6117 9.36651 11.2108 9.72818 10.5983 10.2232C10.3983 10.3799 10.2061 10.5465 10.0225 10.7223C9.19085 11.5532 9.16668 12.4357 9.16668 12.534V13.0898H10.8333L10.8325 12.5623C10.8333 12.549 10.86 12.2407 11.2 11.9015C11.325 11.7765 11.4825 11.6515 11.6458 11.5198C12.295 10.994 13.2775 10.1998 13.2775 8.86818C13.2769 7.99906 12.9314 7.16571 12.3169 6.55107C11.7024 5.93643 10.8691 5.59073 10 5.58984ZM9.16668 13.9232H10.8333V15.5898H9.16668V13.9232Z" fill="white"/>
<path d="M10.0001 2.25684C5.40508 2.25684 1.66675 5.99517 1.66675 10.5902C1.66675 15.1852 5.40508 18.9235 10.0001 18.9235C14.5951 18.9235 18.3334 15.1852 18.3334 10.5902C18.3334 5.99517 14.5951 2.25684 10.0001 2.25684ZM10.0001 17.2568C6.32425 17.2568 3.33341 14.266 3.33341 10.5902C3.33341 6.91434 6.32425 3.9235 10.0001 3.9235C13.6759 3.9235 16.6667 6.91434 16.6667 10.5902C16.6667 14.266 13.6759 17.2568 10.0001 17.2568Z" fill="white"/>
</svg>
