<svg width="49" height="49" viewBox="0 0 49 49" fill="none" xmlns="http://www.w3.org/2000/svg">
<rect x="0.468262" y="0.908203" width="48" height="48" rx="24" fill="#003A4D" fill-opacity="0.12"/>
<path d="M15.8781 21.226L15.8781 18.7715L18.3327 18.7715L18.3327 21.226L15.8781 21.226ZM20.7872 21.226L33.0599 21.226L33.0599 18.7715L20.7872 18.7715L20.7872 21.226ZM15.8781 28.5897L15.8781 31.0442L18.3327 31.0442L18.3327 28.5897L15.8781 28.5897ZM33.0599 31.0442L20.7872 31.0442L20.7872 28.5897L33.0599 28.5897L33.0599 31.0442Z" fill="white"/>
<path fill-rule="evenodd" clip-rule="evenodd" d="M10.9683 17.5451C10.9683 16.5686 11.3562 15.6321 12.0466 14.9417C12.7371 14.2512 13.6736 13.8633 14.6501 13.8633L34.2864 13.8633C35.2629 13.8633 36.1994 14.2512 36.8899 14.9417C37.5804 15.6321 37.9683 16.5686 37.9683 17.5451L37.9683 32.2724C37.9683 33.2489 37.5804 34.1853 36.8899 34.8758C36.1994 35.5663 35.2629 35.9542 34.2864 35.9542L14.6501 35.9542C13.6736 35.9542 12.7371 35.5663 12.0466 34.8758C11.3562 34.1853 10.9683 33.2488 10.9683 32.2724L10.9683 17.5451ZM14.6501 16.3178L34.2864 16.3178C34.6119 16.3178 34.9241 16.4471 35.1543 16.6773C35.3844 16.9074 35.5137 17.2196 35.5137 17.5451L35.5137 23.6815L13.4228 23.6815L13.4228 17.5451C13.4228 17.2196 13.5521 16.9074 13.7823 16.6773C14.0124 16.4471 14.3246 16.3178 14.6501 16.3178V16.3178ZM13.4228 26.136L13.4228 32.2724C13.4228 32.5979 13.5521 32.91 13.7823 33.1402C14.0124 33.3703 14.3246 33.4996 14.6501 33.4996L34.2864 33.4996C34.6119 33.4996 34.9241 33.3703 35.1543 33.1402C35.3844 32.91 35.5137 32.5979 35.5137 32.2724L35.5137 26.136L13.4228 26.136Z" fill="white"/>
</svg>
