<svg width="20" height="21" viewBox="0 0 20 21" fill="none" xmlns="http://www.w3.org/2000/svg">
<path d="M15.0003 13H13.3337V14.6667H15.0003M15.0003 9.66667H13.3337V11.3333H15.0003M16.667 16.3333H10.0003V14.6667H11.667V13H10.0003V11.3333H11.667V9.66667H10.0003V8H16.667M8.33366 6.33333H6.66699V4.66667H8.33366M8.33366 9.66667H6.66699V8H8.33366M8.33366 13H6.66699V11.3333H8.33366M8.33366 16.3333H6.66699V14.6667H8.33366M5.00033 6.33333H3.33366V4.66667H5.00033M5.00033 9.66667H3.33366V8H5.00033M5.00033 13H3.33366V11.3333H5.00033M5.00033 16.3333H3.33366V14.6667H5.00033M10.0003 6.33333V3H1.66699V18H18.3337V6.33333H10.0003Z" fill="#3B566C"/>
</svg>
