<svg width="49" height="49" viewBox="0 0 49 49" fill="none" xmlns="http://www.w3.org/2000/svg">
<rect x="0.46875" y="0.908691" width="48" height="48" rx="24" fill="#00C2FF" fill-opacity="0.12"/>
<path d="M29.8021 12.9087L19.1354 12.9087C17.6627 12.9087 16.4687 14.1026 16.4687 15.5754L16.4687 34.242C16.4687 35.7148 17.6627 36.9087 19.1354 36.9087L29.8021 36.9087C31.2748 36.9087 32.4687 35.7148 32.4687 34.242L32.4687 15.5754C32.4687 14.1026 31.2748 12.9087 29.8021 12.9087Z" stroke="#00E0FF" stroke-width="1.65" stroke-linecap="round" stroke-linejoin="round"/>
<path d="M23.1357 14.2422L25.8024 14.2422" stroke="#00E0FF" stroke-width="2.5" stroke-linecap="round" stroke-linejoin="round"/>
<path d="M27.7935 30.3546C27.1488 30.9795 26.4449 30.8808 25.7674 30.5848C25.0503 30.2822 24.3925 30.269 23.636 30.5848C22.6887 30.9926 22.1888 30.8742 21.6231 30.3546C18.4129 27.0457 18.8865 22.0067 22.5309 21.8225C23.4189 21.8686 24.0373 22.3093 24.557 22.3488C25.3332 22.1909 26.0766 21.737 26.9054 21.7962C27.8987 21.8752 28.6487 22.2699 29.142 22.9803C27.0896 24.2105 27.5764 26.9141 29.4578 27.6706C29.0828 28.6574 28.596 29.6375 27.7869 30.3611L27.7935 30.3546ZM24.4912 21.7831C24.3925 20.3161 25.5832 19.1057 26.9515 18.9873C27.1422 20.6845 25.4121 21.9475 24.4912 21.7831Z" fill="#00E0FF"/>
</svg>
