<svg width="49" height="49" viewBox="0 0 49 49" fill="none" xmlns="http://www.w3.org/2000/svg">
<rect x="0.46875" y="0.908691" width="48" height="48" rx="24" fill="#00C2FF" fill-opacity="0.12"/>
<path d="M29.8021 12.9087L19.1354 12.9087C17.6627 12.9087 16.4687 14.1026 16.4687 15.5754L16.4687 34.242C16.4687 35.7148 17.6627 36.9087 19.1354 36.9087L29.8021 36.9087C31.2748 36.9087 32.4687 35.7148 32.4687 34.242L32.4687 15.5754C32.4687 14.1026 31.2748 12.9087 29.8021 12.9087Z" stroke="#00E0FF" stroke-width="1.65" stroke-linecap="round" stroke-linejoin="round"/>
<path d="M23.1357 14.2422L25.8024 14.2422" stroke="#00E0FF" stroke-width="2.5" stroke-linecap="round" stroke-linejoin="round"/>
<path d="M27.5654 23.6872L28.5831 21.9284C28.6715 21.757 28.6052 21.5468 28.4393 21.4583C28.3614 21.4177 28.2711 21.4077 28.1862 21.4302C28.1012 21.4527 28.0278 21.5062 27.9802 21.58L26.9405 23.3719C26.1584 23.0407 25.3177 22.87 24.4683 22.87C23.619 22.87 22.7783 23.0407 21.9962 23.3719L20.9565 21.58C20.9062 21.5029 20.8279 21.4482 20.7382 21.4276C20.6485 21.407 20.5542 21.422 20.4753 21.4694C20.3205 21.569 20.2707 21.7681 20.3536 21.9284L21.3713 23.6872C20.5269 24.1695 19.8134 24.851 19.2929 25.6723C18.7723 26.4936 18.4606 27.4298 18.3848 28.3992L30.5519 28.3992C30.4761 27.4298 30.1644 26.4936 29.6438 25.6723C29.1233 24.851 28.4098 24.1695 27.5654 23.6872ZM21.7031 26.8783C21.5197 26.8783 21.3439 26.8054 21.2142 26.6758C21.0846 26.5461 21.0118 26.3703 21.0118 26.187C21.0118 26.0036 21.0846 25.8278 21.2142 25.6981C21.3439 25.5685 21.5197 25.4956 21.7031 25.4956C21.8864 25.4956 22.0623 25.5685 22.1919 25.6981C22.3216 25.8278 22.3944 26.0036 22.3944 26.187C22.3944 26.3703 22.3216 26.5461 22.1919 26.6758C22.0623 26.8054 21.8864 26.8783 21.7031 26.8783ZM27.2336 26.8783C27.0503 26.8783 26.8744 26.8054 26.7448 26.6758C26.6151 26.5461 26.5423 26.3703 26.5423 26.187C26.5423 26.0036 26.6151 25.8278 26.7448 25.6981C26.8744 25.5685 27.0503 25.4956 27.2336 25.4956C27.417 25.4956 27.5928 25.5685 27.7224 25.6981C27.8521 25.8278 27.9249 26.0036 27.9249 26.187C27.9249 26.3703 27.8521 26.5461 27.7224 26.6758C27.5928 26.8054 27.417 26.8783 27.2336 26.8783Z" fill="#00E0FF"/>
</svg>
