<svg width="49" height="49" viewBox="0 0 49 49" fill="none" xmlns="http://www.w3.org/2000/svg">
<rect x="0.46875" y="0.908691" width="48" height="48" rx="24" fill="#00C2FF" fill-opacity="0.12"/>
<path d="M15.8789 21.227L15.8789 18.7725L18.3335 18.7725L18.3335 21.227L15.8789 21.227ZM20.788 21.227L33.0607 21.227L33.0607 18.7725L20.788 18.7725L20.788 21.227ZM15.8789 28.5906L15.8789 31.0452L18.3335 31.0452L18.3335 28.5906L15.8789 28.5906ZM33.0607 31.0452L20.788 31.0452L20.788 28.5906L33.0607 28.5906L33.0607 31.0452Z" fill="#00E0FF"/>
<path fill-rule="evenodd" clip-rule="evenodd" d="M10.9687 17.5451C10.9687 16.5686 11.3567 15.6321 12.0471 14.9417C12.7376 14.2512 13.6741 13.8633 14.6506 13.8633L34.2869 13.8633C35.2634 13.8633 36.1999 14.2512 36.8904 14.9417C37.5808 15.6321 37.9687 16.5686 37.9687 17.5451L37.9687 32.2724C37.9687 33.2489 37.5808 34.1853 36.8904 34.8758C36.1999 35.5663 35.2634 35.9542 34.2869 35.9542L14.6506 35.9542C13.6741 35.9542 12.7376 35.5663 12.0471 34.8758C11.3567 34.1853 10.9687 33.2488 10.9687 32.2724L10.9687 17.5451ZM14.6506 16.3178L34.2869 16.3178C34.6124 16.3178 34.9246 16.4471 35.1547 16.6773C35.3849 16.9074 35.5142 17.2196 35.5142 17.5451L35.5142 23.6815L13.4233 23.6815L13.4233 17.5451C13.4233 17.2196 13.5526 16.9074 13.7828 16.6773C14.0129 16.4471 14.3251 16.3178 14.6506 16.3178ZM13.4233 26.136L13.4233 32.2724C13.4233 32.5979 13.5526 32.91 13.7828 33.1402C14.0129 33.3703 14.3251 33.4996 14.6506 33.4996L34.2869 33.4996C34.6124 33.4996 34.9246 33.3703 35.1547 33.1402C35.3849 32.91 35.5142 32.5979 35.5142 32.2724L35.5142 26.136L13.4233 26.136Z" fill="#00E0FF"/>
</svg>
