<svg width="49" height="49" viewBox="0 0 49 49" fill="none" xmlns="http://www.w3.org/2000/svg">
<rect x="0.46875" y="0.908691" width="48" height="48" rx="24" fill="#00C2FF" fill-opacity="0.12"/>
<path d="M18.6421 18.0222C18.6421 17.6007 18.8095 17.1965 19.1075 16.8985C19.4056 16.6005 19.8098 16.433 20.2313 16.433L28.707 16.433C29.1285 16.433 29.5327 16.6005 29.8307 16.8985C30.1287 17.1965 30.2962 17.6007 30.2962 18.0222C30.2962 18.4437 30.1287 18.8479 29.8307 19.1459C29.5327 19.444 29.1285 19.6114 28.707 19.6114L20.2313 19.6114C19.8098 19.6114 19.4056 19.444 19.1075 19.1459C18.8095 18.8479 18.6421 18.4437 18.6421 18.0222ZM20.2313 24.9087L28.707 24.9087C29.1285 24.9087 29.5327 24.7413 29.8307 24.4433C30.1287 24.1452 30.2962 23.741 30.2962 23.3195C30.2962 22.8981 30.1287 22.4938 29.8307 22.1958C29.5327 21.8978 29.1285 21.7303 28.707 21.7303L20.2313 21.7303C19.8098 21.7303 19.4056 21.8978 19.1075 22.1958C18.8095 22.4938 18.6421 22.8981 18.6421 23.3195C18.6421 23.741 18.8095 24.1452 19.1075 24.4433C19.4056 24.7413 19.8098 24.9087 20.2313 24.9087ZM24.4691 30.2061C24.05 30.2061 23.6404 30.3303 23.2919 30.5632C22.9434 30.796 22.6719 31.1269 22.5115 31.5141C22.3511 31.9013 22.3091 32.3274 22.3909 32.7384C22.4727 33.1494 22.6745 33.527 22.9708 33.8233C23.2671 34.1197 23.6447 34.3215 24.0557 34.4032C24.4668 34.485 24.8928 34.443 25.28 34.2826C25.6672 34.1223 25.9981 33.8507 26.2309 33.5022C26.4638 33.1538 26.588 32.7441 26.588 32.325C26.588 31.763 26.3648 31.2241 25.9674 30.8267C25.57 30.4293 25.0311 30.2061 24.4691 30.2061ZM35.5935 13.2546L35.5935 36.5629C35.59 37.2643 35.3099 37.9359 34.8139 38.4319C34.3179 38.9279 33.6462 39.208 32.9448 39.2115L15.9934 39.2115C15.292 39.208 14.6203 38.9279 14.1243 38.4319C13.6284 37.9359 13.3482 37.2643 13.3447 36.5629L13.3447 13.2546C13.3482 12.5532 13.6284 11.8815 14.1243 11.3856C14.6203 10.8896 15.292 10.6094 15.9934 10.606L32.9448 10.606C33.6462 10.6094 34.3179 10.8896 34.8139 11.3856C35.3099 11.8815 35.59 12.5532 35.5935 13.2546ZM32.4151 13.7844L16.5231 13.7844L16.5231 36.0331L32.4151 36.0331L32.4151 13.7844Z" fill="#00E0FF"/>
</svg>
