<svg width="16" height="20" viewBox="0 0 16 20" fill="none" xmlns="http://www.w3.org/2000/svg">
<path d="M2.23814 20.834C1.71433 20.834 1.26607 20.6476 0.893374 20.2749C0.520041 19.9016 0.333374 19.453 0.333374 18.9292V9.40541C0.333374 8.8816 0.520041 8.43303 0.893374 8.0597C1.26607 7.687 1.71433 7.50065 2.23814 7.50065H3.19052V5.59589C3.19052 4.27843 3.65496 3.15525 4.58385 2.22637C5.5121 1.29811 6.63496 0.833984 7.95242 0.833984C9.26988 0.833984 10.3931 1.29811 11.3219 2.22637C12.2502 3.15525 12.7143 4.27843 12.7143 5.59589V7.50065H13.6667C14.1905 7.50065 14.6391 7.687 15.0124 8.0597C15.3851 8.43303 15.5715 8.8816 15.5715 9.40541V18.9292C15.5715 19.453 15.3851 19.9016 15.0124 20.2749C14.6391 20.6476 14.1905 20.834 13.6667 20.834H2.23814ZM7.95242 16.0721C8.47623 16.0721 8.9248 15.8857 9.29814 15.513C9.67083 15.1397 9.85718 14.6911 9.85718 14.1673C9.85718 13.6435 9.67083 13.1949 9.29814 12.8216C8.9248 12.4489 8.47623 12.2626 7.95242 12.2626C7.42861 12.2626 6.98036 12.4489 6.60766 12.8216C6.23433 13.1949 6.04766 13.6435 6.04766 14.1673C6.04766 14.6911 6.23433 15.1397 6.60766 15.513C6.98036 15.8857 7.42861 16.0721 7.95242 16.0721ZM5.09528 7.50065H10.8096V5.59589C10.8096 4.80224 10.5318 4.12764 9.97623 3.57208C9.42068 3.01652 8.74607 2.73875 7.95242 2.73875C7.15877 2.73875 6.48417 3.01652 5.92861 3.57208C5.37306 4.12764 5.09528 4.80224 5.09528 5.59589V7.50065Z" fill="#B02A37"/>
</svg>
