<svg width="16" height="20" viewBox="0 0 16 20" fill="none" xmlns="http://www.w3.org/2000/svg">
<path d="M2.23777 20.8335C1.71396 20.8335 1.26571 20.6471 0.893008 20.2744C0.519674 19.9011 0.333008 19.4525 0.333008 18.9287V9.40492C0.333008 8.88111 0.519674 8.43254 0.893008 8.05921C1.26571 7.68651 1.71396 7.50016 2.23777 7.50016H3.19015V5.5954C3.19015 4.27794 3.6546 3.15477 4.58348 2.22588C5.51174 1.29762 6.63459 0.833496 7.95205 0.833496C9.26952 0.833496 10.3927 1.29762 11.3216 2.22588C12.2498 3.15477 12.714 4.27794 12.714 5.5954V7.50016H13.6663C14.1902 7.50016 14.6387 7.68651 15.0121 8.05921C15.3848 8.43254 15.5711 8.88111 15.5711 9.40492V18.9287C15.5711 19.4525 15.3848 19.9011 15.0121 20.2744C14.6387 20.6471 14.1902 20.8335 13.6663 20.8335H2.23777ZM7.95205 16.0716C8.47586 16.0716 8.92444 15.8852 9.29777 15.5125C9.67047 15.1392 9.85682 14.6906 9.85682 14.1668C9.85682 13.643 9.67047 13.1944 9.29777 12.8211C8.92444 12.4484 8.47586 12.2621 7.95205 12.2621C7.42825 12.2621 6.97999 12.4484 6.60729 12.8211C6.23396 13.1944 6.04729 13.643 6.04729 14.1668C6.04729 14.6906 6.23396 15.1392 6.60729 15.5125C6.97999 15.8852 7.42825 16.0716 7.95205 16.0716ZM5.09491 7.50016H10.8092V5.5954C10.8092 4.80175 10.5314 4.12715 9.97586 3.57159C9.42031 3.01604 8.74571 2.73826 7.95205 2.73826C7.1584 2.73826 6.4838 3.01604 5.92825 3.57159C5.37269 4.12715 5.09491 4.80175 5.09491 5.5954V7.50016Z" fill="#3B566C"/>
</svg>
