<svg width="18" height="14" viewBox="0 0 18 14" fill="none" xmlns="http://www.w3.org/2000/svg">
<path d="M15.6666 0.333984H2.33329C1.41663 0.333984 0.674959 1.08398 0.674959 2.00065L0.666626 12.0007C0.666626 12.9173 1.41663 13.6673 2.33329 13.6673H15.6666C16.5833 13.6673 17.3333 12.9173 17.3333 12.0007V2.00065C17.3333 1.08398 16.5833 0.333984 15.6666 0.333984ZM15.3333 3.87565L9.44162 7.55898C9.17496 7.72565 8.82496 7.72565 8.55829 7.55898L2.66663 3.87565C2.58307 3.82874 2.50989 3.76537 2.45153 3.68936C2.39317 3.61336 2.35084 3.5263 2.32711 3.43346C2.30337 3.34062 2.29871 3.24393 2.31342 3.14924C2.32813 3.05455 2.36191 2.96383 2.41269 2.88257C2.46348 2.80131 2.53023 2.7312 2.6089 2.67648C2.68757 2.62176 2.77652 2.58358 2.87037 2.56423C2.96423 2.54489 3.06103 2.54479 3.15492 2.56394C3.24881 2.58309 3.33785 2.6211 3.41663 2.67565L8.99996 6.16732L14.5833 2.67565C14.6621 2.6211 14.7511 2.58309 14.845 2.56394C14.9389 2.54479 15.0357 2.54489 15.1295 2.56423C15.2234 2.58358 15.3123 2.62176 15.391 2.67648C15.4697 2.7312 15.5364 2.80131 15.5872 2.88257C15.638 2.96383 15.6718 3.05455 15.6865 3.14924C15.7012 3.24393 15.6966 3.34062 15.6728 3.43346C15.6491 3.5263 15.6067 3.61336 15.5484 3.68936C15.49 3.76537 15.4169 3.82874 15.3333 3.87565Z" fill="#B02A37"/>
</svg>
