<svg width="18" height="14" viewBox="0 0 18 14" fill="none" xmlns="http://www.w3.org/2000/svg">
<path d="M15.667 0.333496H2.33366C1.41699 0.333496 0.675326 1.0835 0.675326 2.00016L0.666992 12.0002C0.666992 12.9168 1.41699 13.6668 2.33366 13.6668H15.667C16.5837 13.6668 17.3337 12.9168 17.3337 12.0002V2.00016C17.3337 1.0835 16.5837 0.333496 15.667 0.333496ZM15.3337 3.87516L9.44199 7.5585C9.17532 7.72516 8.82532 7.72516 8.55866 7.5585L2.66699 3.87516C2.58343 3.82825 2.51026 3.76488 2.4519 3.68887C2.39354 3.61287 2.35121 3.52581 2.32747 3.43297C2.30373 3.34013 2.29908 3.24344 2.31379 3.14875C2.3285 3.05406 2.36227 2.96334 2.41306 2.88208C2.46385 2.80082 2.5306 2.73071 2.60926 2.67599C2.68793 2.62127 2.77688 2.58309 2.87074 2.56374C2.96459 2.5444 3.06139 2.5443 3.15529 2.56345C3.24918 2.5826 3.33821 2.62061 3.41699 2.67516L9.00032 6.16683L14.5837 2.67516C14.6624 2.62061 14.7515 2.5826 14.8454 2.56345C14.9393 2.5443 15.0361 2.5444 15.1299 2.56374C15.2238 2.58309 15.3127 2.62127 15.3914 2.67599C15.4701 2.73071 15.5368 2.80082 15.5876 2.88208C15.6384 2.96334 15.6721 3.05406 15.6869 3.14875C15.7016 3.24344 15.6969 3.34013 15.6732 3.43297C15.6494 3.52581 15.6071 3.61287 15.5487 3.68887C15.4904 3.76488 15.4172 3.82825 15.3337 3.87516Z" fill="#3B566C"/>
</svg>
