<svg width="24" height="24" viewBox="0 0 24 24" fill="none" xmlns="http://www.w3.org/2000/svg">
<path d="M12 5.79102C7.86113 5.79102 4.32657 8.36537 2.89453 11.9993C4.32657 15.6332 7.86113 18.2075 12 18.2075C16.1388 18.2075 19.6734 15.6332 21.1054 11.9993C19.6734 8.36537 16.1388 5.79102 12 5.79102ZM12 16.1381C9.71533 16.1381 7.86113 14.2839 7.86113 11.9993C7.86113 9.71463 9.71533 7.86043 12 7.86043C14.2846 7.86043 16.1388 9.71463 16.1388 11.9993C16.1388 14.2839 14.2846 16.1381 12 16.1381ZM12 9.51597C10.6259 9.51597 9.51667 10.6252 9.51667 11.9993C9.51667 13.3734 10.6259 14.4826 12 14.4826C13.3741 14.4826 14.4833 13.3734 14.4833 11.9993C14.4833 10.6252 13.3741 9.51597 12 9.51597Z" fill="#B02A37"/>
</svg>
