<svg width="49" height="49" viewBox="0 0 49 49" fill="none" xmlns="http://www.w3.org/2000/svg">
<rect x="0.468246" y="0.908203" width="48" height="48" rx="24" fill="#003A4D" fill-opacity="0.12"/>
<path d="M6.46825 16.0039L6.46825 33.8119L24.6632 33.8119L42.4682 16.0039L6.46825 16.0039ZM11.3642 19.3159L11.3717 19.3159C12.6662 19.3174 14.2442 19.6834 15.3857 20.2654L14.1557 22.4104C12.9032 21.8044 12.2732 21.7474 11.5607 21.7099C10.4987 21.6529 9.96475 22.0324 9.95725 22.4419C9.94675 22.9399 10.9607 23.3914 11.9147 23.6989C13.3607 24.1579 15.1997 24.7714 15.4802 26.5489L18.1232 19.5634L21.1922 19.5634L24.2882 27.9274L24.2777 19.5649L27.8327 19.5649C31.2182 19.5649 32.8097 20.7109 32.8097 23.3434C32.8097 25.7059 31.1747 27.1144 28.4057 27.1144L27.2612 27.1144L27.2462 30.2554L21.8642 30.2509L21.4892 28.8889C20.9342 29.0719 20.3087 29.1724 19.6442 29.1724C18.9602 29.1724 18.3167 29.0659 17.7497 28.8724L17.2127 30.2509L14.2127 30.2599L14.3477 29.5669C14.3042 29.6044 14.2622 29.6419 14.2172 29.6779C13.4147 30.3229 12.4052 30.6214 11.1617 30.6439L10.8422 30.6469C9.48454 30.6607 8.14786 30.3111 6.97075 29.6344L8.06575 27.4624C9.25075 28.1629 9.99475 28.3204 10.9997 28.2994C11.5202 28.2889 11.8967 28.1944 12.1412 27.9409C12.2852 27.7918 12.3686 27.5945 12.3752 27.3874C12.3857 26.8234 11.5802 26.5579 10.5977 26.2534C9.80125 26.0074 8.89525 25.6699 8.18875 25.1509C7.35025 24.5359 6.95125 23.7649 6.97075 22.6759C6.97584 21.9035 7.28016 21.1631 7.81975 20.6104C8.59825 19.8049 9.85525 19.3159 11.3642 19.3159V19.3159ZM27.2597 21.8209L27.2597 24.6769L28.0412 24.6769C29.0822 24.6769 29.9117 24.3319 29.9132 23.2309C29.9132 22.1674 29.0822 21.8209 28.0412 21.8209L27.2597 21.8209ZM19.6292 22.9714L18.5072 26.5144C18.8417 26.6419 19.2287 26.7139 19.6427 26.7139C20.0447 26.7139 20.4227 26.6434 20.7557 26.5249L19.6517 22.9699L19.6292 22.9714Z" fill="white"/>
</svg>
