<svg width="49" height="49" viewBox="0 0 49 49" fill="none" xmlns="http://www.w3.org/2000/svg">
<rect x="0.468262" y="0.908203" width="48" height="48" rx="24" fill="#003A4D" fill-opacity="0.12"/>
<path d="M29.8016 12.9082L19.1349 12.9082C17.6622 12.9082 16.4683 14.1021 16.4683 15.5749L16.4683 34.2415C16.4683 35.7143 17.6622 36.9082 19.1349 36.9082L29.8016 36.9082C31.2744 36.9082 32.4683 35.7143 32.4683 34.2415L32.4683 15.5749C32.4683 14.1021 31.2744 12.9082 29.8016 12.9082Z" stroke="white" stroke-width="1.65" stroke-linecap="round" stroke-linejoin="round"/>
<path d="M23.135 14.2422L25.8017 14.2422" stroke="white" stroke-width="2.5" stroke-linecap="round" stroke-linejoin="round"/>
<path d="M27.5654 23.6867L28.583 21.928C28.6715 21.7565 28.6051 21.5463 28.4392 21.4579C28.3613 21.4173 28.271 21.4072 28.1861 21.4297C28.1012 21.4522 28.0277 21.5057 27.9801 21.5795L26.9404 23.3714C26.1583 23.0402 25.3176 22.8696 24.4683 22.8696C23.6189 22.8696 22.7782 23.0402 21.9961 23.3714L20.9564 21.5795C20.9061 21.5024 20.8279 21.4478 20.7381 21.4271C20.6484 21.4065 20.5541 21.4215 20.4752 21.4689C20.3204 21.5685 20.2706 21.7676 20.3535 21.928L21.3712 23.6867C20.5268 24.169 19.8133 24.8505 19.2928 25.6718C18.7722 26.4931 18.4605 27.4293 18.3847 28.3987L30.5518 28.3987C30.476 27.4293 30.1643 26.4931 29.6437 25.6718C29.1232 24.8505 28.4097 24.169 27.5654 23.6867V23.6867ZM21.703 26.8778C21.5196 26.8778 21.3438 26.8049 21.2142 26.6753C21.0845 26.5456 21.0117 26.3698 21.0117 26.1865C21.0117 26.0031 21.0845 25.8273 21.2142 25.6976C21.3438 25.568 21.5196 25.4951 21.703 25.4951C21.8863 25.4951 22.0622 25.568 22.1918 25.6976C22.3215 25.8273 22.3943 26.0031 22.3943 26.1865C22.3943 26.3698 22.3215 26.5456 22.1918 26.6753C22.0622 26.8049 21.8863 26.8778 21.703 26.8778V26.8778ZM27.2335 26.8778C27.0502 26.8778 26.8743 26.8049 26.7447 26.6753C26.615 26.5457 26.5422 26.3698 26.5422 26.1865C26.5422 26.0031 26.615 25.8273 26.7447 25.6976C26.8743 25.568 27.0502 25.4951 27.2335 25.4951C27.4169 25.4951 27.5927 25.568 27.7224 25.6976C27.852 25.8273 27.9248 26.0031 27.9248 26.1865C27.9248 26.3698 27.852 26.5457 27.7224 26.6753C27.5927 26.8049 27.4169 26.8778 27.2335 26.8778V26.8778Z" fill="white"/>
</svg>
