<svg width="49" height="49" viewBox="0 0 49 49" fill="none" xmlns="http://www.w3.org/2000/svg">
<rect x="0.468262" y="0.908203" width="48" height="48" rx="24" fill="#003A4D" fill-opacity="0.12"/>
<path d="M19.15 21.5061L17.3089 21.5061L14.8283 28.3085L16.6502 28.3085L17.1558 26.9186L19.3031 26.9186L19.8087 28.3085L21.6307 28.3085L19.15 21.5061ZM17.5696 25.7848L18.2295 23.9777L18.8893 25.786L17.5696 25.7848ZM27.5759 21.5061L23.6079 21.5061L23.6079 28.3085L25.3085 28.3085L25.3085 26.0411L27.5759 26.0411C27.8004 26.0452 28.0234 26.0041 28.2316 25.9201C28.4398 25.8361 28.6289 25.711 28.7877 25.5522C28.9464 25.3935 29.0716 25.2044 29.1555 24.9961C29.2395 24.7879 29.2807 24.5649 29.2765 24.3405L29.2765 23.2067C29.2807 22.9823 29.2395 22.7593 29.1555 22.5511C29.0716 22.3429 28.9464 22.1537 28.7877 21.995C28.6289 21.8362 28.4398 21.7111 28.2316 21.6271C28.0234 21.5431 27.8004 21.502 27.5759 21.5061V21.5061ZM27.5759 24.3405L25.3085 24.3405L25.3085 23.2067L27.5759 23.2067L27.5759 24.3405ZM31.2674 21.5061L32.968 21.5061L32.968 28.3085L31.2674 28.3085L31.2674 21.5061Z" fill="white"/>
<path d="M35.8056 18.1054L35.8056 31.7101L13.1309 31.7101L13.1309 18.1054L35.8056 18.1054ZM35.8056 15.8379L13.1309 15.8379C12.5296 15.8379 11.9528 16.0768 11.5276 16.502C11.1024 16.9272 10.8635 17.504 10.8635 18.1054L10.8635 31.7101C10.8635 32.3115 11.1024 32.8882 11.5276 33.3135C11.9528 33.7387 12.5296 33.9776 13.1309 33.9776L35.8056 33.9776C36.4069 33.9776 36.9837 33.7387 37.4089 33.3135C37.8342 32.8882 38.073 32.3115 38.073 31.7101L38.073 18.1054C38.073 17.504 37.8342 16.9272 37.4089 16.502C36.9837 16.0768 36.4069 15.8379 35.8056 15.8379V15.8379Z" fill="white"/>
</svg>
