<svg width="49" height="49" viewBox="0 0 49 49" fill="none" xmlns="http://www.w3.org/2000/svg">
<rect x="0.468262" y="0.908203" width="48" height="48" rx="24" fill="#003A4D" fill-opacity="0.12"/>
<path d="M32.9683 16.9082L15.9683 16.9082C15.1398 16.9082 14.4683 17.5798 14.4683 18.4082L14.4683 31.4082C14.4683 32.2366 15.1398 32.9082 15.9683 32.9082L32.9683 32.9082C33.7967 32.9082 34.4683 32.2366 34.4683 31.4082L34.4683 18.4082C34.4683 17.5798 33.7967 16.9082 32.9683 16.9082Z" stroke="white" stroke-width="1.65" stroke-linejoin="round"/>
<path d="M14.4683 18.4082C14.4683 18.0104 14.6263 17.6288 14.9076 17.3475C15.1889 17.0662 15.5704 16.9082 15.9683 16.9082L32.9683 16.9082C33.3661 16.9082 33.7476 17.0662 34.0289 17.3475C34.3102 17.6288 34.4683 18.0104 34.4683 18.4082L34.4683 22.9082L14.4683 22.9082L14.4683 18.4082Z" stroke="white" stroke-width="1.65"/>
<path d="M16.3661 19.9081C16.3661 19.2436 16.9048 18.7049 17.5693 18.7049C18.2338 18.7049 18.7725 19.2436 18.7725 19.9081C18.7725 20.5726 18.2338 21.1113 17.5693 21.1113C16.9048 21.1113 16.3661 20.5726 16.3661 19.9081Z" fill="white"/>
<path d="M19.6518 19.9081C19.6518 19.2436 20.1905 18.7049 20.855 18.7049C21.5195 18.7049 22.0582 19.2436 22.0582 19.9081C22.0582 20.5726 21.5195 21.1113 20.855 21.1113C20.1905 21.1113 19.6518 20.5726 19.6518 19.9081Z" fill="white"/>
</svg>
