<svg width="49" height="49" viewBox="0 0 49 49" fill="none" xmlns="http://www.w3.org/2000/svg">
<rect x="0.468246" y="0.908203" width="48" height="48" rx="24" fill="#003A4D" fill-opacity="0.12"/>
<path d="M18.6412 18.0217C18.6412 17.6002 18.8086 17.196 19.1067 16.898C19.4047 16.6 19.8089 16.4325 20.2304 16.4325L28.7061 16.4325C29.1276 16.4325 29.5318 16.6 29.8298 16.898C30.1279 17.196 30.2953 17.6002 30.2953 18.0217C30.2953 18.4432 30.1279 18.8474 29.8298 19.1455C29.5318 19.4435 29.1276 19.6109 28.7061 19.6109L20.2304 19.6109C19.8089 19.6109 19.4047 19.4435 19.1067 19.1455C18.8086 18.8474 18.6412 18.4432 18.6412 18.0217ZM20.2304 24.9083L28.7061 24.9083C29.1276 24.9083 29.5318 24.7408 29.8298 24.4428C30.1279 24.1448 30.2953 23.7405 30.2953 23.3191C30.2953 22.8976 30.1279 22.4934 29.8298 22.1953C29.5318 21.8973 29.1276 21.7299 28.7061 21.7299L20.2304 21.7299C19.8089 21.7299 19.4047 21.8973 19.1067 22.1953C18.8086 22.4934 18.6412 22.8976 18.6412 23.3191C18.6412 23.7405 18.8086 24.1448 19.1066 24.4428C19.4047 24.7408 19.8089 24.9083 20.2304 24.9083ZM24.4682 30.2056C24.0492 30.2056 23.6395 30.3299 23.291 30.5627C22.9426 30.7955 22.671 31.1265 22.5106 31.5136C22.3502 31.9008 22.3083 32.3269 22.39 32.7379C22.4718 33.1489 22.6736 33.5265 22.9699 33.8228C23.2663 34.1192 23.6438 34.321 24.0549 34.4027C24.4659 34.4845 24.8919 34.4425 25.2791 34.2822C25.6663 34.1218 25.9972 33.8502 26.2301 33.5017C26.4629 33.1533 26.5872 32.7436 26.5872 32.3245C26.5872 31.7625 26.3639 31.2236 25.9666 30.8262C25.5692 30.4288 25.0302 30.2056 24.4682 30.2056V30.2056ZM35.5926 13.2541L35.5926 36.5624C35.5892 37.2638 35.309 37.9355 34.813 38.4314C34.317 38.9274 33.6454 39.2076 32.944 39.211L15.9925 39.211C15.2911 39.2076 14.6194 38.9274 14.1235 38.4314C13.6275 37.9355 13.3473 37.2638 13.3439 36.5624L13.3439 13.2541C13.3473 12.5527 13.6275 11.8811 14.1235 11.3851C14.6194 10.8891 15.2911 10.6089 15.9925 10.6055L32.944 10.6055C33.6454 10.609 34.317 10.8891 34.813 11.3851C35.309 11.8811 35.5892 12.5527 35.5926 13.2541V13.2541ZM32.4142 13.7839L16.5223 13.7839L16.5223 36.0326L32.4142 36.0326L32.4142 13.7839Z" fill="white"/>
</svg>
