<svg width="600" height="768" viewBox="0 0 600 768" fill="none" xmlns="http://www.w3.org/2000/svg">
<g clip-path="url(#clip0_305_4426)">
<rect width="600" height="768" fill="url(#paint0_linear_305_4426)"/>
<g opacity="0.2">
<path d="M689.184 516.091C677.226 515.872 666.473 513.824 656.527 509.788C634.645 500.907 621.65 484.976 609.17 469.485C597.045 454.833 585.952 441.064 567.533 433.357C549.232 425.93 531.283 427.912 512.494 430.25C492.749 432.662 472.326 435.031 450.445 426.151C428.563 417.27 415.568 401.338 403.088 385.848C390.963 371.196 379.87 357.427 361.451 349.72C343.15 342.292 325.201 344.275 306.413 346.612C286.667 349.025 266.244 351.394 244.363 342.513C222.482 333.633 209.486 317.701 197.006 302.21C184.881 287.559 173.788 273.789 155.369 266.082C137.068 258.655 119.119 260.638 100.331 262.975C80.5853 265.387 60.1624 267.756 38.2811 258.876C16.3998 249.996 3.40407 234.064 -9.07561 218.573C-21.2007 203.922 -32.2938 190.152 -50.7127 182.445C-69.0134 175.018 -86.9627 177.001 -105.751 179.338C-125.378 182.03 -145.801 184.399 -167.683 175.518C-177.629 171.482 -186.767 165.456 -195.497 157.28L-185.717 146.884C-178.138 153.899 -170.827 158.719 -162.354 162.39C-144.054 169.817 -126.104 167.834 -107.316 165.497C-87.5705 163.085 -67.1475 160.716 -45.2662 169.596C-23.385 178.476 -10.3892 194.408 2.09043 209.899C14.2156 224.551 25.3086 238.32 43.7275 246.027C62.0282 253.454 79.9776 251.471 98.7659 249.134C118.511 246.722 138.934 244.353 160.816 253.233C182.697 262.114 195.693 278.045 208.172 293.536C220.297 308.188 231.39 321.957 249.809 329.664C268.11 337.091 286.059 335.109 304.848 332.771C324.593 330.359 345.016 327.99 366.897 336.871C388.779 345.751 401.774 361.683 414.254 377.173C426.379 391.825 437.472 405.595 455.891 413.301C474.192 420.729 492.141 418.746 510.93 416.409C530.675 413.996 551.098 411.627 572.979 420.508C594.861 429.388 607.856 445.32 620.336 460.811C632.461 475.462 643.554 489.232 661.973 496.939C670.328 500.329 679.21 501.849 689.534 502.1L689.184 516.091Z" fill="#0A5C9F"/>
<path d="M705.227 552.489L702.754 552.875C683.008 555.288 662.585 557.657 640.704 548.776C618.823 539.896 605.827 523.964 593.347 508.473C581.222 493.822 570.129 480.052 551.71 472.345C533.409 464.918 515.46 466.901 496.672 469.238C476.926 471.65 456.503 474.019 434.622 465.139C412.741 456.258 399.745 440.327 387.265 424.836C375.14 410.184 364.047 396.415 345.628 388.708C327.209 381.001 309.378 383.264 290.59 385.601C270.844 388.013 250.421 390.382 228.54 381.502C206.659 372.621 193.663 356.69 181.184 341.199C169.058 326.547 157.965 312.778 139.546 305.071C121.246 297.644 103.296 299.626 84.508 301.964C64.7626 304.376 44.3396 306.745 22.4583 297.864C0.577068 288.984 -12.4186 273.052 -24.8983 257.562C-37.0234 242.91 -48.1165 229.14 -66.5354 221.434C-84.8361 214.006 -102.785 215.989 -121.574 218.326C-141.319 220.739 -161.742 223.108 -183.624 214.227C-205.505 205.347 -218.501 189.415 -230.98 173.924L-232.485 171.924L-221.437 162.97L-219.932 164.97C-207.807 179.622 -196.714 193.392 -178.295 201.098C-159.995 208.526 -142.045 206.543 -123.257 204.206C-103.511 201.793 -83.0884 199.424 -61.2072 208.305C-39.3259 217.185 -26.3302 233.117 -13.8505 248.608C-1.72535 263.259 9.36767 277.029 27.7866 284.736C46.0873 292.163 64.0367 290.18 82.825 287.843C102.57 285.431 122.993 283.062 144.875 291.942C166.756 300.822 179.752 316.754 192.231 332.245C204.356 346.897 215.45 360.666 233.868 368.373C252.169 375.8 270.118 373.817 288.907 371.48C308.652 369.068 329.075 366.699 350.957 375.579C372.838 384.46 385.833 400.391 398.313 415.882C410.438 430.534 421.531 444.303 439.95 452.01C458.369 459.717 476.2 457.455 494.989 455.117C514.734 452.705 535.157 450.336 557.038 459.217C578.92 468.097 591.915 484.029 604.395 499.519C616.52 514.171 627.613 527.94 646.032 535.647C664.333 543.075 682.282 541.092 701.071 538.755L703.544 538.368L705.227 552.489Z" fill="#0A5C9F"/>
<path d="M719.591 589.596C708.751 588.904 698.061 590.126 687.092 591.466C667.346 593.878 646.923 596.247 625.042 587.367C603.161 578.486 590.165 562.555 577.685 547.064C565.56 532.412 554.467 518.643 536.048 510.936C517.747 503.509 499.798 505.491 481.01 507.829C461.264 510.241 440.841 512.61 418.96 503.73C397.079 494.849 384.083 478.917 371.603 463.427C359.478 448.775 348.385 435.006 329.966 427.299C311.666 419.871 293.716 421.854 274.928 424.192C255.182 426.604 234.759 428.973 212.878 420.092C190.997 411.212 178.001 395.28 165.521 379.789C153.396 365.138 142.303 351.368 123.884 343.661C105.584 336.234 87.6343 338.217 68.846 340.554C49.1005 342.966 28.6775 345.335 6.79625 336.455C-15.085 327.575 -28.0808 311.643 -40.5605 296.152C-52.6856 281.501 -63.7786 267.731 -82.1975 260.024C-100.498 252.597 -118.448 254.58 -137.236 256.917C-156.981 259.329 -177.404 261.698 -199.286 252.818C-221.167 243.937 -234.163 228.006 -246.642 212.515C-253.694 203.629 -260.509 195.303 -268.647 188.525L-259.384 177.688C-250.095 185.628 -242.646 194.675 -235.315 203.443C-223.19 218.094 -212.097 231.864 -193.678 239.571C-175.377 246.998 -157.428 245.015 -138.639 242.678C-118.894 240.266 -98.4709 237.897 -76.5896 246.777C-54.7083 255.658 -41.7126 271.589 -29.2329 287.08C-17.1078 301.732 -6.01476 315.501 12.4041 323.208C30.7048 330.635 48.6542 328.653 67.4425 326.315C87.188 323.903 107.611 321.534 129.492 330.414C151.374 339.295 164.369 355.227 176.849 370.717C188.974 385.369 200.067 399.138 218.486 406.845C236.787 414.273 254.736 412.29 273.524 409.953C293.27 407.54 313.693 405.171 335.574 414.052C357.455 422.932 370.451 438.864 382.931 454.355C395.056 469.006 406.149 482.776 424.568 490.483C442.869 497.91 460.818 495.927 479.606 493.59C499.352 491.178 519.775 488.809 541.656 497.689C563.537 506.569 576.533 522.501 589.013 537.992C601.138 552.643 612.231 566.413 630.65 574.12C648.95 581.547 666.9 579.564 685.688 577.227C697.056 576.048 708.982 574.633 720.898 575.53L719.591 589.596Z" fill="#0A5C9F"/>
<path d="M737.919 639.201C734.264 636.791 730.447 634.779 726.469 633.164C708.168 625.737 690.218 627.719 671.43 630.057C651.685 632.469 631.262 634.838 609.38 625.958C587.499 617.077 574.503 601.145 562.024 585.655C549.899 571.003 538.806 557.234 520.387 549.527C502.086 542.099 484.137 544.082 465.348 546.419C445.603 548.832 425.18 551.201 403.299 542.32C381.417 533.44 368.422 517.508 355.942 502.017C343.817 487.366 332.724 473.596 314.305 465.889C296.004 458.462 278.055 460.445 259.266 462.782C239.521 465.194 219.098 467.563 197.217 458.683C175.335 449.803 162.34 433.871 149.86 418.38C137.735 403.729 126.642 389.959 108.223 382.252C89.9222 374.825 71.9729 376.808 53.1846 379.145C33.4391 381.557 13.0162 383.926 -8.86513 375.046C-30.7464 366.165 -43.7421 350.234 -56.2218 334.743C-68.3469 320.091 -79.44 306.322 -97.8589 298.615C-116.16 291.188 -134.109 293.171 -152.897 295.508C-172.643 297.92 -193.066 300.289 -214.947 291.409C-236.828 282.528 -249.824 266.596 -262.304 251.106C-274.429 236.454 -285.522 222.685 -303.941 214.978C-307.919 213.363 -312.059 212.146 -316.36 211.327L-313.301 197.51C-308.204 198.651 -303.268 200.191 -298.494 202.129C-276.613 211.009 -263.617 226.941 -251.138 242.431C-239.012 257.083 -227.919 270.853 -209.501 278.559C-191.2 285.987 -173.25 284.004 -154.462 281.667C-134.717 279.254 -114.294 276.885 -92.4125 285.766C-70.5312 294.646 -57.5354 310.578 -45.0557 326.069C-32.9306 340.72 -21.8376 354.49 -3.41868 362.197C14.882 369.624 32.8313 367.641 51.6197 365.304C71.3651 362.892 91.7881 360.523 113.669 369.403C135.551 378.284 148.546 394.215 161.026 409.706C173.151 424.358 184.244 438.127 202.663 445.834C220.964 453.261 238.913 451.278 257.702 448.941C277.447 446.529 297.87 444.16 319.751 453.04C341.633 461.921 354.628 477.852 367.108 493.343C379.233 507.995 390.326 521.764 408.745 529.471C427.046 536.898 444.995 534.916 463.783 532.578C483.529 530.166 503.952 527.797 525.833 536.678C547.714 545.558 560.71 561.49 573.19 576.98C585.315 591.632 596.408 605.402 614.827 613.108C633.128 620.536 651.077 618.553 669.865 616.216C689.611 613.803 710.034 611.434 731.915 620.315C736.689 622.252 741.302 624.588 745.753 627.321L737.919 639.201Z" fill="#0A5C9F"/>
<path d="M760.645 717.93C757.872 714.488 755.217 711.325 752.444 707.882C740.318 693.231 729.225 679.461 710.806 671.754C692.506 664.327 674.556 666.31 655.768 668.647C636.023 671.06 615.6 673.428 593.718 664.548C571.837 655.668 558.841 639.736 546.362 624.245C534.237 609.594 523.144 595.824 504.725 588.117C486.424 580.69 468.475 582.673 449.686 585.01C429.941 587.422 409.518 589.791 387.637 580.911C365.755 572.03 352.76 556.099 340.28 540.608C328.155 525.956 317.062 512.187 298.643 504.48C280.342 497.053 262.393 499.035 243.604 501.373C223.859 503.785 203.436 506.154 181.555 497.274C159.673 488.393 146.678 472.461 134.198 456.971C122.073 442.319 110.98 428.55 92.5609 420.843C74.2602 413.416 56.3108 415.398 37.5225 417.736C17.777 420.148 -2.64595 422.517 -24.5272 413.636C-46.4085 404.756 -59.4042 388.824 -71.8839 373.334C-84.009 358.682 -95.1021 344.912 -113.521 337.205C-131.822 329.778 -149.771 331.761 -168.559 334.098C-188.305 336.511 -208.728 338.879 -230.609 329.999C-252.49 321.119 -265.486 305.187 -277.966 289.696C-290.091 275.045 -301.184 261.275 -319.603 253.568C-337.904 246.141 -355.853 248.124 -374.641 250.461C-378.749 250.879 -383.137 251.415 -387.525 251.951L-388.649 237.594C-384.423 237.456 -380.314 237.038 -376.045 236.222C-356.299 233.81 -335.876 231.441 -313.995 240.321C-292.114 249.202 -279.118 265.133 -266.638 280.624C-254.513 295.276 -243.42 309.045 -225.001 316.752C-206.7 324.179 -188.751 322.197 -169.963 319.859C-150.217 317.447 -129.794 315.078 -107.913 323.959C-86.0318 332.839 -73.0361 348.771 -60.5564 364.261C-48.4313 378.913 -37.3382 392.682 -18.9193 400.389C-0.618606 407.817 17.3307 405.834 36.1191 403.497C55.8646 401.084 76.2875 398.715 98.1688 407.596C120.05 416.476 133.046 432.408 145.525 447.899C157.651 462.55 168.744 476.32 187.163 484.027C205.463 491.454 223.413 489.471 242.201 487.134C261.946 484.722 282.369 482.353 304.251 491.233C326.132 500.113 339.128 516.045 351.607 531.536C363.732 546.188 374.825 559.957 393.244 567.664C411.545 575.091 429.494 573.108 448.283 570.771C468.028 568.359 488.451 565.99 510.332 574.87C532.214 583.751 545.209 599.682 557.689 615.173C569.814 629.825 580.907 643.594 599.326 651.301C617.627 658.728 635.576 656.746 654.365 654.408C674.11 651.996 694.533 649.627 716.414 658.507C738.296 667.388 751.291 683.32 763.771 698.81C766.426 701.973 769.199 705.415 771.854 708.578L760.645 717.93Z" fill="#0A5C9F"/>
<path d="M725.527 733.102C718.669 725.453 709.187 716.276 695.263 710.625C676.962 703.197 659.012 705.18 640.224 707.518C620.479 709.93 600.056 712.299 578.174 703.418C556.293 694.538 543.297 678.606 530.818 663.115C518.693 648.464 507.599 634.694 489.181 626.987C470.88 619.56 452.931 621.543 434.142 623.88C414.397 626.292 393.974 628.661 372.093 619.781C350.211 610.901 337.216 594.969 324.736 579.478C312.611 564.827 301.518 551.057 283.099 543.35C264.798 535.923 246.849 537.906 228.06 540.243C208.315 542.655 187.892 545.024 166.011 536.144C144.129 527.263 131.134 511.332 118.654 495.841C106.529 481.189 95.4358 467.42 77.0169 459.713C58.7162 452.286 40.7668 454.268 21.9785 456.606C2.23304 459.018 -18.1899 461.387 -40.0712 452.507C-61.9525 443.626 -74.9482 427.694 -87.4279 412.204C-99.553 397.552 -110.646 383.783 -129.065 376.076C-147.366 368.649 -165.315 370.631 -184.103 372.969C-203.849 375.381 -224.272 377.75 -246.153 368.869C-268.034 359.989 -281.03 344.057 -293.51 328.567C-305.635 313.915 -316.728 300.145 -335.147 292.439C-349.071 286.787 -362.546 286.879 -372.515 287.467L-373.521 273.389C-361.917 272.77 -346.41 272.808 -329.819 279.31C-307.937 288.19 -294.942 304.122 -282.462 319.613C-270.337 334.264 -259.244 348.034 -240.825 355.741C-222.524 363.168 -204.575 361.185 -185.786 358.848C-166.041 356.436 -145.618 354.067 -123.737 362.947C-101.855 371.827 -88.8597 387.759 -76.38 403.25C-64.2549 417.901 -53.1619 431.671 -34.743 439.378C-16.4423 446.805 1.50712 444.822 20.2954 442.485C40.0409 440.073 60.4639 437.704 82.3452 446.584C104.226 455.465 117.222 471.396 129.702 486.887C141.827 501.539 152.92 515.308 171.339 523.015C189.64 530.442 207.589 528.46 226.377 526.122C246.123 523.71 266.546 521.341 288.427 530.221C310.308 539.102 323.304 555.034 335.784 570.524C347.909 585.176 359.002 598.945 377.421 606.652C395.721 614.079 413.671 612.097 432.459 609.759C452.205 607.347 472.628 604.978 494.509 613.859C516.39 622.739 529.386 638.671 541.866 654.161C553.991 668.813 565.084 682.583 583.503 690.29C601.803 697.717 619.753 695.734 638.541 693.397C658.287 690.984 678.709 688.616 700.591 697.496C717.3 704.277 728.448 715.057 736.059 723.706L725.527 733.102Z" fill="#0A5C9F"/>
<path d="M685.805 752.197C683.698 751.11 681.591 750.023 679.322 749.334C661.021 741.906 643.072 743.889 624.284 746.226C604.538 748.639 584.115 751.008 562.234 742.127C540.353 733.247 527.357 717.315 514.877 701.824C502.752 687.173 491.659 673.403 473.24 665.696C454.939 658.269 436.99 660.252 418.202 662.589C398.456 665.001 378.033 667.37 356.152 658.49C334.271 649.61 321.275 633.678 308.795 618.187C296.67 603.535 285.577 589.766 267.158 582.059C248.858 574.632 230.908 576.615 212.12 578.952C192.374 581.364 171.951 583.733 150.07 574.853C128.189 565.972 115.193 550.041 102.713 534.55C90.5883 519.898 79.4952 506.129 61.0763 498.422C42.7756 490.995 24.8263 492.977 6.03796 495.315C-13.7075 497.727 -34.1305 500.096 -56.0118 491.215C-77.893 482.335 -90.8887 466.403 -103.368 450.913C-115.494 436.261 -126.587 422.492 -145.006 414.785C-163.306 407.357 -181.256 409.34 -200.044 411.677C-219.789 414.09 -240.212 416.459 -262.094 407.578C-283.975 398.698 -296.971 382.766 -309.45 367.275C-321.575 352.624 -332.668 338.854 -351.087 331.147C-353.077 330.34 -355.464 329.371 -357.732 328.682L-353.598 315.069C-350.931 315.92 -348.264 316.77 -345.479 317.9C-323.598 326.781 -310.602 342.713 -298.123 358.203C-285.998 372.855 -274.905 386.624 -256.486 394.331C-238.185 401.759 -220.236 399.776 -201.447 397.438C-181.702 395.026 -161.279 392.657 -139.398 401.538C-117.516 410.418 -104.521 426.35 -92.0409 441.84C-79.9158 456.492 -68.8227 470.262 -50.4038 477.969C-32.1031 485.396 -14.1538 483.413 4.63454 481.076C24.38 478.663 44.803 476.295 66.6843 485.175C88.5655 494.055 101.561 509.987 114.041 525.478C126.166 540.129 137.259 553.899 155.678 561.606C173.979 569.033 191.928 567.05 210.716 564.713C230.462 562.301 250.885 559.932 272.766 568.812C294.647 577.693 307.643 593.624 320.123 609.115C332.248 623.767 343.341 637.536 361.76 645.243C380.061 652.67 398.01 650.687 416.798 648.35C436.544 645.938 456.967 643.569 478.848 652.449C500.729 661.33 513.725 677.262 526.205 692.752C538.33 707.404 549.423 721.173 567.842 728.88C586.142 736.308 604.092 734.325 622.88 731.987C642.626 729.575 663.048 727.206 684.93 736.087C687.715 737.217 690.22 738.465 692.725 739.714L685.805 752.197Z" fill="#0A5C9F"/>
<path d="M617.279 783.466C614.407 783.69 611.654 784.195 608.783 784.419C589.037 786.832 568.614 789.201 546.733 780.32C524.852 771.44 511.856 755.508 499.376 740.017C487.251 725.366 476.158 711.596 457.739 703.889C439.438 696.462 421.489 698.445 402.701 700.782C382.955 703.194 362.532 705.563 340.651 696.683C318.77 687.803 305.774 671.871 293.294 656.38C281.169 641.728 270.076 627.959 251.657 620.252C233.357 612.825 215.407 614.808 196.619 617.145C176.873 619.557 156.45 621.926 134.569 613.046C112.688 604.165 99.6922 588.234 87.2125 572.743C75.0874 558.091 63.9944 544.322 45.5755 536.615C27.2748 529.188 9.32538 531.17 -9.46295 533.508C-29.2084 535.92 -49.6314 538.289 -71.5127 529.408C-93.3939 520.528 -106.39 504.596 -118.869 489.106C-130.994 474.454 -142.088 460.685 -160.506 452.978C-178.807 445.55 -196.756 447.533 -215.545 449.87C-235.29 452.283 -255.713 454.652 -277.595 445.771C-299.476 436.891 -312.472 420.959 -324.951 405.468C-326.854 403.306 -328.477 401.026 -330.38 398.863L-319.45 389.63C-317.547 391.792 -315.526 394.234 -313.903 396.514C-301.778 411.166 -290.685 424.936 -272.266 432.642C-253.966 440.07 -236.016 438.087 -217.228 435.75C-197.482 433.337 -177.059 430.968 -155.178 439.849C-133.297 448.729 -120.301 464.661 -107.821 480.152C-95.6964 494.803 -84.6033 508.573 -66.1844 516.28C-47.8837 523.707 -29.9343 521.724 -11.146 519.387C8.59947 516.975 29.0224 514.606 50.9037 523.486C72.785 532.367 85.7807 548.298 98.2604 563.789C110.386 578.441 121.479 592.21 139.897 599.917C158.198 607.344 176.147 605.361 194.936 603.024C214.681 600.612 235.104 598.243 256.986 607.123C278.867 616.004 291.863 631.936 304.342 647.426C316.467 662.078 327.56 675.847 345.979 683.554C364.28 690.981 382.229 688.999 401.018 686.661C420.763 684.249 441.186 681.88 463.067 690.761C484.949 699.641 497.944 715.573 510.424 731.063C522.549 745.715 533.642 759.484 552.061 767.191C570.362 774.619 588.311 772.636 607.1 770.299C609.971 770.074 613.004 769.451 615.875 769.227L617.279 783.466Z" fill="#0A5C9F"/>
<path d="M529.878 818.426C508.674 809.589 496.076 793.819 483.715 778.608C471.589 763.956 460.496 750.187 442.077 742.48C423.777 735.053 405.827 737.035 387.039 739.373C367.294 741.785 346.871 744.154 324.989 735.273C303.108 726.393 290.112 710.461 277.633 694.971C265.508 680.319 254.415 666.549 235.996 658.843C217.695 651.415 199.746 653.398 180.957 655.735C161.212 658.148 140.789 660.517 118.908 651.636C97.0263 642.756 84.0305 626.824 71.5509 611.333C59.4258 596.682 48.3327 582.912 29.9138 575.205C11.6131 567.778 -6.33625 569.761 -25.1246 572.098C-44.87 574.51 -65.293 576.879 -87.1743 567.999C-109.056 559.118 -122.051 543.187 -134.531 527.696C-146.656 513.044 -157.749 499.275 -176.168 491.568C-194.469 484.141 -212.418 486.124 -231.206 488.461C-250.672 490.755 -270.816 493.006 -292.063 484.846L-286.853 471.438C-268.67 478.585 -251.398 476.559 -232.889 474.34C-213.144 471.928 -192.721 469.559 -170.84 478.439C-148.959 487.32 -135.963 503.251 -123.483 518.742C-111.358 533.394 -100.265 547.163 -81.846 554.87C-63.5453 562.297 -45.596 560.315 -26.8077 557.977C-7.06218 555.565 13.3608 553.196 35.2421 562.077C57.1233 570.957 70.119 586.889 82.5987 602.379C94.7239 617.031 105.817 630.8 124.236 638.507C142.536 645.935 160.486 643.952 179.274 641.615C199.02 639.202 219.443 636.833 241.324 645.714C263.205 654.594 276.201 670.526 288.681 686.017C300.806 700.668 311.899 714.438 330.318 722.145C348.618 729.572 366.568 727.589 385.356 725.252C405.101 722.84 425.524 720.471 447.406 729.351C469.287 738.231 482.283 754.163 494.762 769.654C506.49 784.144 517.744 797.516 535.486 805.179L529.878 818.426Z" fill="#0A5C9F"/>
<path d="M483.747 835.615C477.996 829.806 473.083 823.642 468.171 817.478C456.046 802.826 444.953 789.057 426.534 781.35C408.233 773.923 390.284 775.906 371.496 778.243C351.75 780.655 331.327 783.024 309.446 774.144C287.565 765.263 274.569 749.332 262.089 733.841C249.964 719.189 238.871 705.42 220.452 697.713C202.151 690.286 184.202 692.268 165.414 694.606C145.668 697.018 125.245 699.387 103.364 690.507C81.4827 681.626 68.487 665.694 56.0073 650.204C43.8822 635.552 32.7892 621.783 14.3703 614.076C-3.93042 606.648 -21.8798 608.631 -40.6681 610.968C-60.4136 613.381 -80.8366 615.75 -102.718 606.869C-124.599 597.989 -137.595 582.057 -150.075 566.566C-162.2 551.915 -173.293 538.145 -191.712 530.438C-210.012 523.011 -227.962 524.994 -246.75 527.331C-254.569 528.328 -262.505 529.046 -270.56 529.484L-271.007 515.17C-263.511 514.968 -256.252 514.208 -248.433 513.21C-228.688 510.798 -208.265 508.429 -186.383 517.31C-164.502 526.19 -151.506 542.122 -139.027 557.613C-126.902 572.264 -115.808 586.034 -97.3896 593.741C-79.0889 601.168 -61.1395 599.185 -42.3512 596.848C-22.6057 594.435 -2.18274 592.067 19.6985 600.947C41.5798 609.827 54.5755 625.759 67.0552 641.25C79.1803 655.901 90.2734 669.671 108.692 677.378C127.111 685.085 144.942 682.822 163.731 680.485C183.476 678.073 203.899 675.704 225.78 684.584C247.662 693.465 260.657 709.396 273.137 724.887C285.262 739.539 296.355 753.308 314.774 761.015C333.075 768.442 351.024 766.459 369.813 764.122C389.558 761.71 409.981 759.341 431.862 768.221C453.744 777.102 466.739 793.034 479.219 808.524C484.131 814.688 488.807 820.293 494.042 825.661L483.747 835.615Z" fill="#0A5C9F"/>
<path d="M447.436 850.303C437.848 838.534 427.022 826.958 410.593 820.059C392.292 812.632 374.343 814.614 355.554 816.952C335.809 819.364 315.386 821.733 293.505 812.852C271.623 803.972 258.628 788.04 246.148 772.55C234.023 757.898 222.93 744.129 204.511 736.422C186.21 728.994 168.261 730.977 149.473 733.314C129.727 735.727 109.304 738.096 87.4228 729.215C65.5416 720.335 52.5458 704.403 40.0661 688.912C27.941 674.261 16.848 660.491 -1.5709 652.784C-19.8716 645.357 -37.821 647.34 -56.6093 649.677C-76.3547 652.089 -96.7777 654.458 -118.659 645.578C-140.54 636.698 -153.536 620.766 -166.016 605.275C-178.141 590.624 -189.234 576.854 -207.653 569.147C-223.964 562.527 -240.074 563.403 -255.152 565.161L-256.556 550.922C-240.521 549.089 -221.819 548.107 -202.324 556.018C-180.443 564.899 -167.447 580.831 -154.968 596.321C-142.843 610.973 -131.75 624.742 -113.331 632.449C-95.03 639.876 -77.0807 637.894 -58.2924 635.556C-38.5469 633.144 -18.1239 630.775 3.75734 639.656C25.6386 648.536 38.6343 664.468 51.114 679.958C63.2391 694.61 74.3322 708.38 92.7511 716.086C111.052 723.514 129.001 721.531 147.789 719.194C167.535 716.781 187.958 714.412 209.839 723.293C231.72 732.173 244.716 748.105 257.196 763.596C269.321 778.247 280.414 792.017 298.833 799.724C317.134 807.151 335.083 805.168 353.871 802.831C373.617 800.419 394.04 798.05 415.921 806.93C435.415 814.842 448.143 828.58 458.365 841.069L447.436 850.303Z" fill="#0A5C9F"/>
<path d="M410.553 867.538C405.629 863.686 400.5 860.91 394.93 858.649C376.629 851.222 358.68 853.205 339.892 855.542C320.146 857.954 299.723 860.323 277.842 851.443C255.961 842.563 242.965 826.631 230.485 811.14C218.36 796.489 207.267 782.719 188.848 775.012C170.548 767.585 152.598 769.568 133.81 771.905C114.064 774.317 93.6415 776.686 71.7602 767.806C49.8789 758.925 36.8833 742.994 24.4036 727.503C12.2785 712.851 1.1854 699.082 -17.2335 691.375C-35.5342 683.948 -53.4836 685.93 -72.2719 688.268C-92.0174 690.68 -112.44 693.049 -134.322 684.169C-156.203 675.288 -169.199 659.356 -181.678 643.866C-193.803 629.214 -204.896 615.445 -223.315 607.738C-228.885 605.477 -234.498 603.894 -240.714 603.225L-238.73 589.203C-231.439 590.076 -224.75 591.864 -217.987 594.609C-196.106 603.489 -183.11 619.421 -170.63 634.912C-158.505 649.563 -147.412 663.333 -128.993 671.04C-110.693 678.467 -92.7433 676.484 -73.955 674.147C-54.2095 671.735 -33.7865 669.366 -11.9053 678.246C9.97602 687.127 22.9717 703.058 35.4514 718.549C47.5765 733.201 58.6696 746.97 77.0885 754.677C95.5074 762.384 113.339 760.122 132.127 757.784C151.872 755.372 172.295 753.003 194.177 761.883C216.058 770.764 229.054 786.696 241.533 802.186C253.658 816.838 264.751 830.607 283.17 838.314C301.471 845.741 319.42 843.759 338.209 841.421C357.954 839.009 378.377 836.64 400.258 845.521C407.022 848.266 413.064 851.645 418.902 856.099L410.553 867.538Z" fill="#0A5C9F"/>
<path d="M358.483 892.511C347.245 891.658 336.158 892.718 324.231 894.133C304.485 896.545 284.062 898.914 262.181 890.034C240.3 881.153 227.304 865.222 214.824 849.731C202.699 835.079 191.606 821.31 173.187 813.603C154.887 806.176 136.937 808.158 118.149 810.496C98.4035 812.908 77.9805 815.277 56.0992 806.397C34.218 797.516 21.2222 781.584 8.74255 766.094C-3.38256 751.442 -14.4756 737.673 -32.8945 729.966C-51.3134 722.259 -69.1446 724.521 -87.9329 726.859C-107.678 729.271 -128.101 731.64 -149.983 722.759C-171.864 713.879 -184.86 697.947 -197.339 682.457C-204.789 673.41 -211.84 664.524 -220.774 657.423L-211.908 646.425C-201.942 654.408 -194.138 664.294 -186.571 673.621C-174.446 688.272 -163.353 702.042 -144.934 709.749C-126.633 717.176 -108.684 715.193 -89.8956 712.856C-70.1502 710.444 -49.7272 708.075 -27.8459 716.955C-5.96467 725.836 7.03106 741.767 19.5107 757.258C31.6359 771.91 42.7289 785.679 61.1478 793.386C79.4485 800.813 97.3979 798.831 116.186 796.493C135.932 794.081 156.355 791.712 178.236 800.592C200.117 809.473 213.113 825.405 225.593 840.895C237.718 855.547 248.811 869.316 267.23 877.023C285.53 884.45 303.48 882.468 322.268 880.13C334.195 878.715 346.52 877.462 359.392 878.284L358.483 892.511Z" fill="#0A5C9F"/>
<path d="M261.487 932.845C256.39 931.704 251.454 930.164 246.68 928.226C224.799 919.346 211.803 903.414 199.323 887.924C187.198 873.272 176.105 859.502 157.686 851.796C139.386 844.368 121.436 846.351 102.648 848.688C82.9024 851.101 62.4794 853.47 40.5982 844.589C18.7169 835.709 5.72116 819.777 -6.75853 804.286C-18.8836 789.635 -29.9767 775.865 -48.3956 768.158C-66.6963 760.731 -84.6456 762.714 -103.434 765.051C-123.179 767.463 -143.602 769.832 -165.484 760.952C-170.258 759.014 -174.87 756.679 -179.322 753.946L-171.488 742.065C-167.833 744.476 -164.016 746.488 -160.037 748.103C-141.737 755.53 -123.787 753.547 -104.999 751.21C-85.2534 748.798 -64.8304 746.429 -42.9492 755.309C-21.0679 764.19 -8.07217 780.121 4.40752 795.612C16.5326 810.264 27.6257 824.033 46.0446 831.74C64.3453 839.167 82.2946 837.185 101.083 834.847C120.828 832.435 141.251 830.066 163.133 838.946C185.014 847.827 198.01 863.759 210.489 879.249C222.614 893.901 233.707 907.67 252.126 915.377C256.105 916.992 260.245 918.209 264.546 919.028L261.487 932.845Z" fill="#0A5C9F"/>
<circle cx="219.358" cy="768.804" r="256.588" transform="rotate(-22.9105 219.358 768.804)" fill="url(#paint1_radial_305_4426)"/>
<circle cx="353.111" cy="331.656" r="322.993" transform="rotate(-22.9105 353.111 331.656)" fill="url(#paint2_radial_305_4426)"/>
</g>
</g>
<defs>
<linearGradient id="paint0_linear_305_4426" x1="8.00001" y1="788" x2="610" y2="14" gradientUnits="userSpaceOnUse">
<stop stop-color="#226399"/>
<stop offset="1" stop-color="#288BDD"/>
</linearGradient>
<radialGradient id="paint1_radial_305_4426" cx="0" cy="0" r="1" gradientUnits="userSpaceOnUse" gradientTransform="translate(219.358 768.804) rotate(90) scale(256.588)">
<stop stop-color="#3DF3FF"/>
<stop offset="1" stop-color="#3DF3FF" stop-opacity="0"/>
</radialGradient>
<radialGradient id="paint2_radial_305_4426" cx="0" cy="0" r="1" gradientUnits="userSpaceOnUse" gradientTransform="translate(353.111 331.656) rotate(90) scale(322.993)">
<stop stop-color="#3DF3FF"/>
<stop offset="1" stop-color="#3DF3FF" stop-opacity="0"/>
</radialGradient>
<clipPath id="clip0_305_4426">
<rect width="600" height="768" fill="white"/>
</clipPath>
</defs>
</svg>
