<svg width="49" height="49" viewBox="0 0 49 49" fill="none" xmlns="http://www.w3.org/2000/svg">
<rect x="0.46875" y="0.908691" width="48" height="48" rx="24" fill="#00C2FF" fill-opacity="0.12"/>
<path d="M32.9688 16.9087L15.9688 16.9087C15.1403 16.9087 14.4687 17.5803 14.4687 18.4087L14.4687 31.4087C14.4687 32.2371 15.1403 32.9087 15.9687 32.9087L32.9687 32.9087C33.7972 32.9087 34.4687 32.2371 34.4687 31.4087L34.4687 18.4087C34.4687 17.5803 33.7972 16.9087 32.9688 16.9087Z" stroke="#00E0FF" stroke-width="1.65" stroke-linejoin="round"/>
<path d="M14.4687 18.4087C14.4687 18.0109 14.6268 17.6293 14.9081 17.348C15.1894 17.0667 15.5709 16.9087 15.9688 16.9087L32.9688 16.9087C33.3666 16.9087 33.7481 17.0667 34.0294 17.348C34.3107 17.6293 34.4687 18.0109 34.4687 18.4087L34.4687 22.9087L14.4687 22.9087L14.4687 18.4087Z" stroke="#00E0FF" stroke-width="1.65"/>
<path d="M16.367 19.9086C16.367 19.2441 16.9057 18.7054 17.5702 18.7054C18.2347 18.7054 18.7734 19.2441 18.7734 19.9086C18.7734 20.5731 18.2347 21.1118 17.5702 21.1118C16.9057 21.1118 16.367 20.5731 16.367 19.9086Z" fill="#00E0FF"/>
<path d="M19.6522 19.9086C19.6522 19.2441 20.1909 18.7054 20.8554 18.7054C21.5199 18.7054 22.0586 19.2441 22.0586 19.9086C22.0586 20.5731 21.5199 21.1118 20.8554 21.1118C20.1909 21.1118 19.6522 20.5731 19.6522 19.9086Z" fill="#00E0FF"/>
</svg>
