<svg width="49" height="49" viewBox="0 0 49 49" fill="none" xmlns="http://www.w3.org/2000/svg">
<rect x="0.46875" y="0.908691" width="48" height="48" rx="24" fill="#00C2FF" fill-opacity="0.12"/>
<path d="M20.4687 32.9087L28.4687 32.9087M14.4687 18.9087C14.4687 18.3783 14.6795 17.8696 15.0545 17.4945C15.4296 17.1194 15.9383 16.9087 16.4688 16.9087L32.4688 16.9087C32.9992 16.9087 33.5079 17.1194 33.883 17.4945C34.258 17.8696 34.4687 18.3783 34.4687 18.9087L34.4687 27.9087C34.4687 28.4391 34.258 28.9478 33.883 29.3229C33.5079 29.698 32.9992 29.9087 32.4687 29.9087L16.4687 29.9087C15.9383 29.9087 15.4296 29.698 15.0545 29.3229C14.6795 28.9478 14.4687 28.4391 14.4687 27.9087L14.4687 18.9087Z" stroke="#00E0FF" stroke-width="1.65" stroke-linecap="round" stroke-linejoin="round"/>
</svg>
