<svg width="49" height="49" viewBox="0 0 49 49" fill="none" xmlns="http://www.w3.org/2000/svg">
<rect x="0.46875" y="0.908691" width="48" height="48" rx="24" fill="#00C2FF" fill-opacity="0.12"/>
<path d="M19.1509 21.5076L17.3097 21.5076L14.8291 28.31L16.651 28.31L17.1567 26.92L19.3039 26.92L19.8096 28.31L21.6315 28.31L19.1509 21.5076ZM17.5705 25.7863L18.2303 23.9791L18.8901 25.7874L17.5705 25.7863ZM27.5768 21.5076L23.6087 21.5076L23.6087 28.31L25.3093 28.31L25.3093 26.0425L27.5768 26.0425C27.8012 26.0467 28.0242 26.0055 28.2324 25.9215C28.4407 25.8376 28.6298 25.7124 28.7885 25.5537C28.9473 25.3949 29.0724 25.2058 29.1564 24.9976C29.2404 24.7894 29.2815 24.5664 29.2774 24.3419L29.2774 23.2082C29.2815 22.9837 29.2404 22.7607 29.1564 22.5525C29.0724 22.3443 28.9473 22.1552 28.7885 21.9965C28.6298 21.8377 28.4407 21.7126 28.2324 21.6286C28.0242 21.5446 27.8012 21.5035 27.5768 21.5076ZM27.5768 24.3419L25.3093 24.3419L25.3093 23.2082L27.5768 23.2082L27.5768 24.3419ZM31.2682 21.5076L32.9688 21.5076L32.9688 28.31L31.2682 28.31L31.2682 21.5076Z" fill="#00E0FF"/>
<path d="M35.8064 18.1063L35.8064 31.7111L13.1317 31.7111L13.1317 18.1063L35.8064 18.1063ZM35.8064 15.8389L13.1317 15.8389C12.5304 15.8389 11.9536 16.0778 11.5284 16.503C11.1032 16.9282 10.8643 17.505 10.8643 18.1063L10.8643 31.7111C10.8643 32.3125 11.1032 32.8892 11.5284 33.3144C11.9536 33.7397 12.5304 33.9786 13.1317 33.9786L35.8064 33.9786C36.4077 33.9786 36.9845 33.7397 37.4097 33.3144C37.8349 32.8892 38.0738 32.3125 38.0738 31.7111L38.0738 18.1063C38.0738 17.505 37.8349 16.9282 37.4097 16.503C36.9845 16.0778 36.4077 15.8389 35.8064 15.8389Z" fill="#00E0FF"/>
</svg>
