<svg width="49" height="49" viewBox="0 0 49 49" fill="none" xmlns="http://www.w3.org/2000/svg">
<rect x="0.46875" y="0.908691" width="48" height="48" rx="24" fill="#00C2FF" fill-opacity="0.12"/>
<path d="M6.46875 16.0049L6.46875 33.8129L24.6637 33.8129L42.4688 16.0049L6.46875 16.0049ZM11.3647 19.3169L11.3723 19.3169C12.6667 19.3184 14.2448 19.6844 15.3863 20.2664L14.1562 22.4114C12.9037 21.8054 12.2737 21.7484 11.5612 21.7109C10.4992 21.6539 9.96525 22.0334 9.95775 22.4429C9.94725 22.9409 10.9613 23.3924 11.9152 23.6999C13.3612 24.1589 15.2002 24.7724 15.4807 26.5499L18.1237 19.5644L21.1927 19.5644L24.2887 27.9284L24.2782 19.5659L27.8332 19.5659C31.2187 19.5659 32.8103 20.7119 32.8103 23.3444C32.8103 25.7069 31.1752 27.1154 28.4062 27.1154L27.2618 27.1154L27.2467 30.2564L21.8647 30.2519L21.4897 28.8899C20.9347 29.0729 20.3093 29.1734 19.6448 29.1734C18.9608 29.1734 18.3172 29.0669 17.7502 28.8734L17.2132 30.2519L14.2132 30.2609L14.3482 29.5679C14.3047 29.6054 14.2627 29.6429 14.2177 29.6789C13.4152 30.3239 12.4057 30.6224 11.1622 30.6449L10.8427 30.6479C9.48505 30.6617 8.14836 30.3121 6.97125 29.6354L8.06625 27.4634C9.25125 28.1639 9.99525 28.3214 11.0002 28.3004C11.5207 28.2899 11.8972 28.1954 12.1418 27.9419C12.2857 27.7928 12.3691 27.5955 12.3757 27.3884C12.3862 26.8244 11.5807 26.5589 10.5982 26.2544C9.80175 26.0084 8.89575 25.6709 8.18925 25.1519C7.35075 24.5369 6.95175 23.7659 6.97125 22.6769C6.97634 21.9045 7.28066 21.1641 7.82025 20.6114C8.59875 19.8059 9.85575 19.3169 11.3647 19.3169ZM27.2602 21.8219L27.2602 24.6779L28.0417 24.6779C29.0828 24.6779 29.9123 24.3329 29.9137 23.2319C29.9137 22.1684 29.0828 21.8219 28.0417 21.8219L27.2602 21.8219ZM19.6298 22.9724L18.5077 26.5154C18.8422 26.6429 19.2292 26.7149 19.6432 26.7149C20.0452 26.7149 20.4232 26.6444 20.7562 26.5259L19.6522 22.9709L19.6298 22.9724Z" fill="#00E0FF"/>
</svg>
