<svg width="49" height="49" viewBox="0 0 49 49" fill="none" xmlns="http://www.w3.org/2000/svg">
<rect x="0.468262" y="0.908203" width="48" height="48" rx="24" fill="#003A4D" fill-opacity="0.12"/>
<path d="M20.4683 32.9082L28.4683 32.9082M14.4683 18.9082C14.4683 18.3778 14.679 17.8691 15.054 17.494C15.4291 17.1189 15.9378 16.9082 16.4683 16.9082L32.4683 16.9082C32.9987 16.9082 33.5074 17.1189 33.8825 17.494C34.2575 17.8691 34.4683 18.3778 34.4683 18.9082L34.4683 27.9082C34.4683 28.4386 34.2575 28.9473 33.8825 29.3224C33.5074 29.6975 32.9987 29.9082 32.4683 29.9082L16.4683 29.9082C15.9378 29.9082 15.4291 29.6975 15.054 29.3224C14.679 28.9473 14.4683 28.4386 14.4683 27.9082L14.4683 18.9082Z" stroke="white" stroke-width="1.65" stroke-linecap="round" stroke-linejoin="round"/>
</svg>
