<svg width="49" height="49" viewBox="0 0 49 49" fill="none" xmlns="http://www.w3.org/2000/svg">
<rect x="0.468262" y="0.908203" width="48" height="48" rx="24" fill="#003A4D" fill-opacity="0.12"/>
<path d="M29.8016 12.9082L19.1349 12.9082C17.6622 12.9082 16.4683 14.1021 16.4683 15.5749L16.4683 34.2415C16.4683 35.7143 17.6622 36.9082 19.1349 36.9082L29.8016 36.9082C31.2744 36.9082 32.4683 35.7143 32.4683 34.2415L32.4683 15.5749C32.4683 14.1021 31.2744 12.9082 29.8016 12.9082Z" stroke="white" stroke-width="1.65" stroke-linecap="round" stroke-linejoin="round"/>
<path d="M23.135 14.2422L25.8017 14.2422" stroke="white" stroke-width="2.5" stroke-linecap="round" stroke-linejoin="round"/>
<path d="M27.7926 30.3536C27.1479 30.9785 26.4441 30.8798 25.7665 30.5838C25.0495 30.2812 24.3916 30.2681 23.6351 30.5838C22.6879 30.9917 22.1879 30.8733 21.6222 30.3536C18.412 27.0447 18.8856 22.0058 22.53 21.8216C23.4181 21.8676 24.0364 22.3084 24.5561 22.3478C25.3323 22.1899 26.0757 21.736 26.9045 21.7953C27.8979 21.8742 28.6478 22.2689 29.1412 22.9793C27.0887 24.2095 27.5755 26.9131 29.4569 27.6696C29.082 28.6564 28.5952 29.6366 27.786 30.3602L27.7926 30.3536V30.3536ZM24.4903 21.7821C24.3916 20.3151 25.5823 19.1047 26.9506 18.9863C27.1414 20.6835 25.4113 21.9466 24.4903 21.7821Z" fill="white"/>
</svg>
